<svg width="361" height="372" viewBox="0 0 361 372" fill="none" xmlns="http://www.w3.org/2000/svg">
<path d="M86.9565 256.851L80.3313 313.166C80.3313 313.166 76.1905 330.557 80.3313 329.729C84.472 328.901 81.1594 313.994 84.472 315.65C87.7847 317.306 81.1594 333.87 84.472 336.354C87.7847 338.838 87.7847 321.447 91.0973 318.135C94.4099 314.822 88.6128 333.041 92.7536 332.213C96.8944 331.385 92.7536 308.197 96.8944 318.963C101.035 329.729 89.441 347.948 96.8944 346.292C104.348 344.636 101.458 323.112 104.348 328.901C106.832 333.87 101.863 351.261 106.832 351.261C111.801 351.261 106.004 325.588 108.489 325.588C110.973 325.588 108.489 342.979 110.973 342.979C113.458 342.979 110.145 333.041 112.629 333.041C115.114 333.041 111.801 346.292 114.286 346.292C116.77 346.292 115.114 332.213 116.77 332.213C118.426 332.213 116.77 355.402 120.083 355.402C123.395 355.402 120.911 341.323 122.567 341.323C124.224 341.323 125.052 353.745 127.536 353.745C130.021 353.745 125.88 345.464 127.536 345.464C129.193 345.464 130.021 355.402 132.505 355.402C134.99 355.402 130.849 338.838 134.161 338.838C137.474 338.838 135.818 358.714 138.302 358.714C140.787 358.714 139.13 338.838 141.615 338.838C144.099 338.838 140.787 353.745 142.443 353.745C144.099 353.745 143.271 343.807 144.928 343.807C146.584 343.807 143.271 361.199 145.756 361.199C148.24 361.199 147.412 342.979 149.068 342.979C150.725 342.979 149.068 354.573 150.725 354.573C152.381 354.573 152.381 342.979 154.037 342.979C155.694 342.979 154.037 351.261 155.694 351.261C157.35 351.261 156.522 341.323 158.178 342.151C159.834 342.979 157.35 360.371 159.834 360.371C162.319 360.371 161.491 342.979 162.319 342.979C163.147 342.979 162.319 352.917 163.975 352.089C165.631 351.261 163.975 342.151 166.46 342.151C168.944 342.151 165.631 357.058 168.116 357.058C170.6 357.058 167.288 351.261 169.772 351.261C172.257 351.261 171.429 358.714 173.085 358.714C174.741 358.714 172.257 347.12 173.913 347.12C175.569 347.12 174.741 355.402 176.398 355.402C178.054 355.402 175.569 343.807 177.226 343.807C178.882 343.807 178.054 351.261 179.71 351.261C181.366 351.261 178.882 343.807 181.366 343.807C183.851 343.807 181.366 350.433 183.023 350.433C184.679 350.433 183.023 341.323 184.679 341.323C186.335 341.323 183.851 344.636 185.507 344.636C187.164 344.636 187.992 334.698 187.992 334.698" fill="#403942"/>
<path d="M86.9565 256.851L80.3313 313.166C80.3313 313.166 76.1905 330.557 80.3313 329.729C84.472 328.901 81.1594 313.994 84.472 315.65C87.7847 317.306 81.1594 333.87 84.472 336.354C87.7847 338.838 87.7847 321.447 91.0973 318.135C94.4099 314.822 88.6128 333.041 92.7536 332.213C96.8944 331.385 92.7536 308.197 96.8944 318.963C101.035 329.729 89.441 347.948 96.8944 346.292C104.348 344.636 101.458 323.112 104.348 328.901C106.832 333.87 101.863 351.261 106.832 351.261C111.801 351.261 106.004 325.588 108.489 325.588C110.973 325.588 108.489 342.979 110.973 342.979C113.458 342.979 110.145 333.041 112.629 333.041C115.114 333.041 111.801 346.292 114.286 346.292C116.77 346.292 115.114 332.213 116.77 332.213C118.426 332.213 116.77 355.402 120.083 355.402C123.395 355.402 120.911 341.323 122.567 341.323C124.224 341.323 125.052 353.745 127.536 353.745C130.021 353.745 125.88 345.464 127.536 345.464C129.193 345.464 130.021 355.402 132.505 355.402C134.99 355.402 130.849 338.838 134.161 338.838C137.474 338.838 135.818 358.714 138.302 358.714C140.787 358.714 139.13 338.838 141.615 338.838C144.099 338.838 140.787 353.745 142.443 353.745C144.099 353.745 143.271 343.807 144.928 343.807C146.584 343.807 143.271 361.199 145.756 361.199C148.24 361.199 147.412 342.979 149.068 342.979C150.725 342.979 149.068 354.573 150.725 354.573C152.381 354.573 152.381 342.979 154.037 342.979C155.694 342.979 154.037 351.261 155.694 351.261C157.35 351.261 156.522 341.323 158.178 342.151C159.834 342.979 157.35 360.371 159.834 360.371C162.319 360.371 161.491 342.979 162.319 342.979C163.147 342.979 162.319 352.917 163.975 352.089C165.631 351.261 163.975 342.151 166.46 342.151C168.944 342.151 165.631 357.058 168.116 357.058C170.6 357.058 167.288 351.261 169.772 351.261C172.257 351.261 171.429 358.714 173.085 358.714C174.741 358.714 172.257 347.12 173.913 347.12C175.569 347.12 174.741 355.402 176.398 355.402C178.054 355.402 175.569 343.807 177.226 343.807C178.882 343.807 178.054 351.261 179.71 351.261C181.366 351.261 178.882 343.807 181.366 343.807C183.851 343.807 181.366 350.433 183.023 350.433C184.679 350.433 183.023 341.323 184.679 341.323C186.335 341.323 183.851 344.636 185.507 344.636C187.164 344.636 187.992 334.698 187.992 334.698" stroke="black" stroke-miterlimit="10"/>
<path d="M82.8157 266.789L74.5342 321.447C74.5342 321.447 72.0497 340.495 76.1905 339.667C80.3313 338.839 77.0186 323.932 80.3313 325.588C83.6439 327.244 77.0186 343.807 80.3313 346.292C83.6439 348.776 83.6439 331.385 86.9565 328.072C90.2692 324.76 84.4721 342.979 88.6128 342.151C92.7536 341.323 88.6128 318.135 92.7536 328.901C96.8944 339.667 85.3002 357.886 92.7536 356.23C100.207 354.573 97.3168 333.05 100.207 338.839C102.692 343.807 97.7226 361.199 102.692 361.199C107.66 361.199 101.863 335.526 104.348 335.526C106.832 335.526 104.348 352.917 106.832 352.917C109.317 352.917 106.004 342.979 108.489 342.979C110.973 342.979 107.66 356.23 110.145 356.23C112.629 356.23 110.973 342.151 112.629 342.151C114.286 342.151 112.629 365.34 115.942 365.34C119.255 365.34 116.77 351.261 118.427 351.261C120.083 351.261 120.911 363.683 123.395 363.683C125.88 363.683 121.739 355.402 123.395 355.402C125.052 355.402 125.88 365.34 128.364 365.34C130.849 365.34 126.708 348.776 130.021 348.776C133.333 348.776 131.677 368.652 134.161 368.652C136.646 368.652 134.99 348.776 137.474 348.776C139.959 348.776 136.646 363.683 138.302 363.683C139.959 363.683 139.13 353.745 140.787 353.745C142.443 353.745 139.13 371.137 141.615 371.137C144.099 371.137 143.271 352.917 144.928 352.917C146.584 352.917 144.928 364.511 146.584 364.511C148.24 364.511 148.24 352.917 149.896 352.917C151.553 352.917 149.896 361.199 151.553 361.199C153.209 361.199 152.381 351.261 154.037 352.089C155.694 352.917 153.209 370.308 155.694 370.308C158.178 370.308 157.35 352.917 158.178 352.917C159.006 352.917 158.178 362.855 159.834 362.027C161.491 361.199 159.834 352.089 162.319 352.089C164.803 352.089 161.491 366.996 163.975 366.996C166.46 366.996 163.147 361.199 165.631 361.199C168.116 361.199 167.288 368.652 168.944 368.652C170.6 368.652 168.116 357.058 169.772 357.058C171.429 357.058 170.6 365.34 172.257 365.34C173.913 365.34 171.429 353.745 173.085 353.745C174.741 353.745 173.913 361.199 175.569 361.199C177.226 361.199 174.741 353.745 177.226 353.745C179.71 353.745 177.226 360.371 178.882 360.371C180.538 360.371 178.882 351.261 180.538 351.261C182.195 351.261 179.71 354.573 181.366 354.573C183.023 354.573 183.851 344.636 183.851 344.636" fill="#F1CEAD"/>
<path d="M82.8157 266.789L74.5342 321.447C74.5342 321.447 72.0497 340.495 76.1905 339.667C80.3313 338.839 77.0186 323.932 80.3313 325.588C83.6439 327.244 77.0186 343.807 80.3313 346.292C83.6439 348.776 83.6439 331.385 86.9565 328.072C90.2692 324.76 84.4721 342.979 88.6128 342.151C92.7536 341.323 88.6128 318.135 92.7536 328.901C96.8944 339.667 85.3002 357.886 92.7536 356.23C100.207 354.573 97.3168 333.05 100.207 338.839C102.692 343.807 97.7226 361.199 102.692 361.199C107.66 361.199 101.863 335.526 104.348 335.526C106.832 335.526 104.348 352.917 106.832 352.917C109.317 352.917 106.004 342.979 108.489 342.979C110.973 342.979 107.66 356.23 110.145 356.23C112.629 356.23 110.973 342.151 112.629 342.151C114.286 342.151 112.629 365.34 115.942 365.34C119.255 365.34 116.77 351.261 118.427 351.261C120.083 351.261 120.911 363.683 123.395 363.683C125.88 363.683 121.739 355.402 123.395 355.402C125.052 355.402 125.88 365.34 128.364 365.34C130.849 365.34 126.708 348.776 130.021 348.776C133.333 348.776 131.677 368.652 134.161 368.652C136.646 368.652 134.99 348.776 137.474 348.776C139.959 348.776 136.646 363.683 138.302 363.683C139.959 363.683 139.13 353.745 140.787 353.745C142.443 353.745 139.13 371.137 141.615 371.137C144.099 371.137 143.271 352.917 144.928 352.917C146.584 352.917 144.928 364.511 146.584 364.511C148.24 364.511 148.24 352.917 149.896 352.917C151.553 352.917 149.896 361.199 151.553 361.199C153.209 361.199 152.381 351.261 154.037 352.089C155.694 352.917 153.209 370.308 155.694 370.308C158.178 370.308 157.35 352.917 158.178 352.917C159.006 352.917 158.178 362.855 159.834 362.027C161.491 361.199 159.834 352.089 162.319 352.089C164.803 352.089 161.491 366.996 163.975 366.996C166.46 366.996 163.147 361.199 165.631 361.199C168.116 361.199 167.288 368.652 168.944 368.652C170.6 368.652 168.116 357.058 169.772 357.058C171.429 357.058 170.6 365.34 172.257 365.34C173.913 365.34 171.429 353.745 173.085 353.745C174.741 353.745 173.913 361.199 175.569 361.199C177.226 361.199 174.741 353.745 177.226 353.745C179.71 353.745 177.226 360.371 178.882 360.371C180.538 360.371 178.882 351.261 180.538 351.261C182.195 351.261 179.71 354.573 181.366 354.573C183.023 354.573 183.851 344.636 183.851 344.636" stroke="black" stroke-miterlimit="10"/>
<path d="M81.5735 171.965C81.5735 171.965 70.8075 152.089 52.588 159.542C34.3686 166.996 42.6501 189.356 42.6501 189.356C42.6501 189.356 46.7909 201.778 47.6191 208.404C48.4472 215.029 53.4162 220.826 53.4162 220.826C53.4162 220.826 54.2443 225.795 55.9006 229.108C57.557 232.42 62.1118 238.631 70.3934 241.116C78.675 243.6 84.4721 236.975 84.4721 236.975C84.4721 236.975 85.3002 234.491 85.3002 231.178C85.3002 227.865 85.3002 236.147 85.3002 236.147C85.3002 236.147 85.3002 237.803 81.9876 239.46C78.675 241.116 80.3313 241.116 80.3313 241.116C80.3313 241.116 81.1594 264.304 81.9876 266.789C82.8158 269.273 82.8158 285.008 95.2381 301.571C107.66 318.135 116.77 326.416 128.364 333.041C139.959 339.667 156.522 345.464 169.772 346.292C183.023 347.12 205.383 344.636 205.383 344.636C205.383 344.636 216.149 341.323 221.118 330.557C226.087 319.791 219.462 318.963 229.4 307.369C239.337 295.774 247.619 284.18 251.76 270.101C255.901 256.023 258.385 241.944 258.385 241.944C258.385 241.944 261.698 227.037 259.213 218.756C256.729 210.474 253.416 202.193 264.182 196.395C274.948 190.598 273.292 183.973 272.464 179.832C271.636 175.692 271.636 173.207 272.464 155.816C273.292 138.424 119.255 151.675 81.5735 171.965Z" fill="#EDC298" stroke="black" stroke-miterlimit="10"/>
<path d="M138.153 160.669C140.025 163.948 144.083 165.141 147.743 166.052C166.219 170.64 184.696 175.228 203.172 179.816C206.228 180.578 209.292 181.331 212.381 181.919C217.731 182.93 223.155 183.41 228.58 183.89C236.828 184.619 245.077 185.348 253.333 186.077C255.412 186.259 257.491 186.441 259.569 186.325C263.47 186.101 267.255 184.81 270.708 182.996C271.337 182.665 272 182.259 272.224 181.588C272.431 180.975 272.199 180.304 272.008 179.692C269.913 173.091 271.139 165.952 272.373 159.137" fill="#A58B76"/>
<path d="M241.143 266.54C232.836 269.87 223.603 270.855 214.783 269.356C211.793 268.851 208.77 268.031 206.319 266.242C201.482 262.706 199.868 255.758 201.756 250.068C202.973 246.391 205.491 243.161 208.762 241.083L208.836 241.141C206.195 244.429 201.449 252.139 206.302 260.801C208.398 264.545 212.282 266.988 216.58 266.971C218.634 266.963 221.085 266.557 223.851 265.389C224.174 265.248 224.48 265.083 224.779 264.925C225.921 264.304 229.805 262.698 235.868 265.265C237.557 265.977 239.338 266.416 241.143 266.54Z" fill="#B29272"/>
<path d="M52.0083 201.373C49.8137 194.01 49.7143 186.035 51.7184 178.623C52.8447 174.449 55.2464 169.928 59.4948 169.108C61.499 168.718 63.6522 169.248 65.5735 168.545C65.8468 168.445 66.1449 168.296 66.2443 168.014C66.4265 167.534 65.9296 167.079 65.4824 166.838C61.7971 164.892 57.2754 166.135 53.4161 167.708C52.4555 168.097 51.47 168.536 50.7909 169.306C50.2277 169.944 49.913 170.764 49.6232 171.559C48.1491 175.584 46.8571 179.725 46.5507 184.006C46.2443 188.288 46.9979 192.735 49.3333 196.329" fill="#A38366"/>
<path d="M76.2567 184.279C76.5963 185.836 75.6687 187.443 74.4099 188.429C73.1511 189.414 71.5942 189.903 70.0952 190.458C68.5963 191.012 67.0725 191.691 66.0455 192.909C65.2091 193.903 64.7785 195.17 64.3644 196.404C63.5445 198.855 62.7163 201.389 62.9317 203.965C62.9731 204.495 63.0559 205.058 62.7992 205.522C62.5424 205.985 61.7805 206.184 61.5072 205.737C61.4327 205.613 61.4079 205.472 61.383 205.331C60.7122 201.224 61.4079 196.901 63.3292 193.215C64.0083 191.915 64.8696 190.656 66.0952 189.853C66.6915 189.464 67.354 189.19 68.0083 188.925C69.7143 188.23 71.412 187.534 73.118 186.83" fill="#A38366"/>
<path d="M196.787 301.787C198.07 303.882 200 305.489 201.971 306.954C203.006 307.725 204.083 308.478 205.284 308.959C206.46 309.422 207.727 309.613 208.977 309.795C213.068 310.391 217.275 310.988 221.317 310.11C225.358 309.232 229.275 306.54 230.41 302.565" fill="#A38467"/>
<path d="M196.58 293.398C195.876 293.646 195.139 293.919 194.65 294.482C194.162 295.046 194.029 295.998 194.576 296.503C194.824 296.735 195.172 296.834 195.503 296.917C198.162 297.58 200.936 297.58 203.677 297.571C212.621 297.555 221.565 297.538 230.509 297.522C231.081 297.522 231.694 297.505 232.149 297.166C232.513 296.892 232.712 296.445 232.828 295.998C233.201 294.573 232.812 292.967 231.834 291.865" fill="#3B3126"/>
<path d="M230.973 273.025V278.839C230.973 279.46 231.023 280.23 231.288 280.42C231.611 280.66 231.859 279.741 231.959 279.004C232.141 277.696 232.323 276.354 232.298 274.979C232.273 273.605 231.975 272.18 231.429 271.584C231.321 271.468 231.197 271.385 231.081 271.451" fill="#A58567"/>
<path d="M231.089 273.025V278.839C231.081 279.46 230.99 280.23 230.476 280.42C229.838 280.66 229.358 279.741 229.159 279.004C228.803 277.696 228.439 276.354 228.497 274.979C228.555 273.605 229.135 272.18 230.203 271.584C230.418 271.468 230.658 271.385 230.89 271.451" fill="#D3AD90"/>
<path d="M83.3789 270.839C81.0352 276.975 80.8282 283.907 82.7992 290.168C84.0911 294.259 86.2609 298.01 88.4224 301.712C90.6087 305.456 92.8364 309.232 95.8095 312.395C97.383 314.068 99.147 315.551 100.903 317.033C103.081 318.863 105.259 320.702 107.429 322.532C110.161 324.834 112.894 327.137 115.776 329.257C133.35 342.176 155.545 347.534 177.333 348.47C178.625 348.528 179.967 348.561 181.168 348.056C183.909 346.897 184.82 343.203 183.776 340.42C182.733 337.638 180.282 335.634 177.789 334.01C170.948 329.555 163.089 326.921 155.959 322.954C150.865 320.122 146.178 316.636 141.325 313.414C133.135 307.981 124.331 303.219 117.557 296.106C114.311 292.702 111.611 288.834 108.911 284.983C106.766 281.919 104.621 278.847 102.484 275.783C97.6563 268.876 92.5052 261.696 84.9358 258.01" fill="#A58A74"/>
<path d="M145.333 169.439C148.878 170.863 152.422 172.288 155.975 173.712C156.845 174.06 157.756 174.433 158.377 175.137C159.213 176.081 159.379 177.455 159.296 178.714C159.015 183.319 156.182 187.294 154.07 191.402C151.959 195.509 150.592 200.694 153.126 204.553C154.99 207.393 158.509 208.702 161.88 209.108C165.251 209.513 168.687 209.207 172.05 209.687C177.93 210.54 183.304 213.778 189.226 214.292C192.149 214.549 195.205 214.151 197.93 215.236C202.004 216.867 204.199 221.522 204.257 225.911C204.315 230.3 202.675 234.507 201.06 238.582C199.487 242.54 197.921 246.499 196.348 250.458C194.36 255.476 192.53 261.704 196.008 265.828C196.555 266.474 197.226 267.062 197.466 267.882C197.673 268.586 197.499 269.348 197.226 270.035C195.213 274.946 188.878 275.874 184.017 278.002C178.012 280.627 173.35 286.151 171.776 292.511C170.973 295.741 171.197 299.708 173.896 301.663C175.313 302.689 177.126 302.938 178.857 303.161C181.631 303.518 184.406 303.865 187.18 304.222C190.211 304.602 193.308 305.008 196.041 306.375C200.373 308.536 203.371 313.141 203.578 317.977C203.793 322.814 201.209 327.667 197.085 330.201C193.516 332.395 189.143 332.826 184.952 332.76C181.433 332.702 177.905 332.337 174.518 331.377C171.097 330.408 167.876 328.859 164.671 327.311C154.021 322.176 143.346 317.025 133.176 310.996C128.48 308.213 123.826 305.182 120.248 301.05C117.259 297.596 115.122 293.505 113.168 289.381C100.886 263.509 94.4762 234.035 100.099 205.952C101.052 201.207 102.335 196.536 103.619 191.865C105.085 186.524 106.634 181.025 110.079 176.685C115.321 170.068 123.95 167.327 132.041 164.934" fill="#E5AF83"/>
<path d="M150.443 185.72C151.727 187.749 153.01 189.778 154.294 191.807C158.617 191.551 162.94 191.203 167.255 190.764C168.944 190.59 170.642 190.408 172.282 189.944C173.921 189.48 175.478 188.743 177.085 188.164C187.983 184.222 200.041 187.576 211.619 187.037C212.82 186.979 214.07 186.863 215.081 186.217C216.091 185.571 216.745 184.213 216.232 183.128C215.594 181.77 213.747 181.654 212.257 181.671C199.072 181.828 186.344 177.331 173.375 174.996C170.186 174.424 166.94 173.977 163.71 174.184C154.137 174.789 145.631 181.091 140.149 188.967" fill="#E8BB91"/>
<path d="M221.035 271.261C221.507 272.155 222.832 271.758 223.843 271.824C225.027 271.907 226.037 272.876 226.402 274.01C226.766 275.145 226.559 276.395 226.104 277.497C224.77 280.66 221.135 282.665 217.747 282.101" fill="#DBAD86"/>
<path d="M235.47 272.172C235.221 274.863 234.857 277.547 234.385 280.205C235.851 280.52 237.358 280.66 238.857 280.619" fill="#DBAD86"/>
<path d="M227.859 273.215C228.87 273.24 229.582 274.209 229.979 275.128C230.832 277.099 231.031 279.344 230.542 281.431" fill="#DBAD89"/>
<path d="M229.027 184.735C230.079 185.961 231.188 187.236 232.687 187.824C234.335 188.478 236.19 188.205 237.946 188.429C241.35 188.867 244.745 191.161 247.942 189.928C248.472 189.72 248.961 189.431 249.441 189.132C250.426 188.536 251.42 187.94 252.406 187.344" fill="#E8BB91"/>
<path d="M226.907 216.147C226.824 224.752 220.431 232.901 212.091 235.037C211.404 231.849 212.919 228.652 214.062 225.596C215.677 221.29 216.613 216.752 217.54 212.246C218.501 207.6 219.462 202.913 219.503 198.168C219.52 196.437 219.42 194.673 219.95 193.025C220.29 191.965 221.118 190.524 222.228 190.118C224.455 189.298 223.942 190.234 224.431 191.94C225.101 194.284 224.638 197.34 224.82 199.799C225.226 205.273 226.899 210.656 226.899 216.147H226.907Z" fill="#DDAC83"/>
<path d="M63.7184 170.242C61.8551 169.522 59.6853 170.118 58.0869 171.311C56.4886 172.503 55.3706 174.226 54.3851 175.957C50.7495 182.366 48.53 190.466 51.9503 197C53.8551 200.636 57.441 203.774 57.2505 207.865C57.2091 208.793 56.9606 209.737 57.2008 210.631C57.441 211.526 58.4265 212.329 59.2546 211.915C59.9089 211.592 60.0745 210.739 60.1242 210.01C60.6377 202.168 56.8447 194.234 58.7495 186.615C59.0476 185.439 59.4865 184.263 60.2981 183.36C62.4513 180.942 66.2443 181.182 69.2422 179.973C69.9958 179.667 70.7412 179.236 71.147 178.524C71.5693 177.787 71.5362 176.884 71.4368 176.039C71.0145 172.586 69.5155 169.273 67.2132 166.665" fill="#DBAA82"/>
<path d="M74.7909 188.776C72.0165 189.596 69.3913 190.93 67.0807 192.677C66.4016 193.19 65.7391 193.762 65.2919 194.491C64.8447 195.219 64.6459 196.081 64.5548 196.934C64.1325 200.735 65.7639 204.702 68.737 207.104C69.6314 207.824 70.824 208.437 71.9006 208.039C73.0931 207.6 73.5569 206.193 73.8633 204.967C74.178 203.716 74.4927 202.466 74.6252 201.182C74.7577 199.849 74.6915 198.482 75.0227 197.19C75.2381 196.354 75.6024 195.567 75.9751 194.789C77.3416 191.907 78.6998 189.025 80.0662 186.135" fill="#DBAA82"/>
<path d="M82.7412 204.66C82.4017 207.923 82.7412 211.211 82.7495 214.499C82.7495 216.487 82.617 218.565 81.5901 220.271C82.2692 221.041 83.6274 220.785 84.2982 219.998C84.969 219.211 85.118 218.126 85.1926 217.108C85.4493 213.513 85.0766 209.903 85.0849 206.292C85.0932 203.841 86.7164 199.501 85.5073 197.439C83.6108 198.822 82.9814 202.325 82.7412 204.66Z" fill="#DBAD86"/>
<path d="M61.6563 228.271C62.2112 229.605 63.4368 230.532 64.6791 231.286C68.3644 233.522 72.6377 234.789 76.9441 234.921C77.2257 234.93 77.5238 234.921 77.7557 234.764C78.0621 234.557 78.1366 234.143 78.1946 233.778C78.4679 231.99 78.7329 230.143 78.2277 228.404C77.9462 227.426 77.4327 226.532 76.9192 225.654C76.1159 224.263 74.0207 219.302 72.2981 219.178C70.5756 219.054 69.6977 221.712 68.4306 222.383C66.0538 223.642 59.4037 222.888 61.648 228.263L61.6563 228.271Z" fill="#DDAC85"/>
<path d="M114.079 174.433C123.304 171.509 133.888 173.29 141.656 179.062C142.087 179.377 142.534 179.758 142.617 180.288C142.7 180.843 142.36 181.356 142.029 181.812C138.94 186.06 135.851 190.3 132.762 194.549C131.023 196.942 129.267 199.369 128.19 202.118C125.681 208.578 127.594 216.503 132.778 221.116C136.538 224.462 141.54 225.977 146.377 227.393C151.197 228.81 156.017 230.226 160.828 231.642C162.493 232.13 164.24 232.669 165.424 233.936C166.253 234.822 166.725 235.981 167.089 237.141C168.696 242.251 168.522 247.907 166.6 252.901C165.308 256.255 163.528 260.685 166.377 262.863C167.006 263.344 167.81 263.634 168.257 264.279C168.704 264.942 168.679 265.812 168.571 266.598C166.923 278.88 151.925 286.896 152.282 299.286C152.331 301.091 152.762 302.946 153.863 304.379C155.859 306.971 159.437 307.567 162.617 308.337C168.017 309.638 173.143 311.956 177.921 314.789C180.903 316.561 183.851 318.623 185.665 321.58C187.478 324.536 187.892 328.586 185.847 331.385C183.18 335.021 177.863 335.12 173.383 334.631C151.437 332.213 129.756 323.6 114.004 308.122C110.998 305.166 108.182 301.927 106.269 298.168C105.3 296.271 104.58 294.267 103.884 292.255C101.607 285.638 99.6522 278.913 98.1035 272.081C94.6335 256.76 93.2257 241.058 91.8344 225.406C91.2215 218.565 90.617 211.733 90.0373 204.892C89.6232 200.014 89.2588 194.905 91.1718 190.4C92.8778 186.358 96.2153 183.269 99.4617 180.313C101.532 178.424 103.818 176.437 106.6 176.188" fill="#DDA67C"/>
<path d="M221.913 199.228C222.17 202.565 221.466 205.886 220.762 209.157C220.224 211.658 219.685 214.168 219.147 216.669C218.112 221.489 216.886 226.648 213.193 229.919C212.729 230.333 212.207 230.739 211.967 231.319C211.785 231.766 211.801 232.271 211.727 232.752C211.544 233.894 210.766 234.93 209.723 235.426C209.921 230.756 210.899 226.11 212.613 221.762C213.681 219.046 215.031 216.437 215.975 213.663C217.781 208.346 217.93 202.747 217.814 197.19C217.781 195.683 217.25 191.634 219.718 192.727C221.226 193.397 221.797 197.845 221.905 199.228H221.913Z" fill="#D6A47F"/>
<path d="M201.01 331.692C203.445 325.894 209.458 321.77 215.743 321.588C216.489 321.563 217.259 321.596 217.946 321.878C219.13 322.35 219.925 323.451 220.654 324.503C221.532 325.77 222.41 327.037 223.288 328.304" fill="#D6A580"/>
<path d="M74.6667 338.681C73.7226 336.015 73.8468 333.083 74.3603 330.309C74.8737 327.534 75.735 324.826 76.2567 322.044C76.5549 320.47 76.207 315.062 77.8716 314.433C78.6253 318.118 77.383 322.673 76.6625 326.3C75.8427 330.4 74.8986 334.499 74.6749 338.681H74.6667Z" fill="#D6A27F"/>
<path d="M82.7495 329.381C82.8571 334.135 80.7868 338.706 80.6542 343.451C80.6377 344.048 80.6377 344.685 80.3064 345.182C79.9752 345.679 79.1553 345.886 78.7909 345.414C79.0807 343.518 79.3706 341.621 79.6687 339.725C79.7764 339.046 79.8758 338.358 79.9834 337.679C80.2733 335.791 80.5631 333.903 80.8282 332.006C81.0104 330.698 80.795 327.725 81.8302 326.839C82.6004 327.269 82.7412 328.536 82.7578 329.373L82.7495 329.381Z" fill="#D3A07D"/>
<path d="M88.8364 336.089C88.7536 337.522 88.646 339.012 87.8923 340.23C87.8344 340.321 87.7681 340.412 87.6605 340.42C87.4534 340.445 87.3872 340.155 87.4037 339.948C87.5528 337.629 87.0642 331.841 89.0932 330.275C89.4327 332.023 88.9524 334.275 88.8364 336.089Z" fill="#D6A27F"/>
<path d="M95.7598 340.768C95.5611 341.696 95.2795 342.598 94.9897 343.493C94.4762 345.108 93.9627 346.731 93.4493 348.346C92.8033 350.366 92.1574 352.404 91.1967 354.3C89.8385 351.791 91.2547 348.768 92.2319 346.093C93.1263 343.642 93.6232 341.058 93.7392 338.458C93.7971 337.133 93.7557 335.799 93.6149 334.474C93.499 333.406 92.8447 331.832 93.0766 330.797C93.1926 330.267 93.7309 329.29 94.4182 329.455C95.1056 329.621 95.3706 331.907 95.4948 332.462C96.116 335.178 96.3561 338.027 95.7681 340.776L95.7598 340.768Z" fill="#D6A27F"/>
<path d="M102.17 351.824C102.079 354.3 101.988 356.776 101.905 359.244C101.888 359.725 101.689 360.362 101.217 360.296C100.845 360.246 100.712 359.774 100.687 359.393C100.373 355.526 101.019 351.675 101.159 347.816C101.201 346.673 101.4 343.841 102.12 346.383C102.576 347.998 102.236 350.159 102.178 351.816L102.17 351.824Z" fill="#D6A27F"/>
<path d="M106.841 350.019C106.932 350.781 106.915 351.749 106.219 352.064C106.244 351.095 105.565 348.014 106.501 347.65C106.7 348.412 106.741 349.232 106.841 350.019Z" fill="#D6A27F"/>
<path d="M110.377 354.656C110.426 354.938 110.484 355.244 110.352 355.501C110.219 355.758 109.814 355.874 109.648 355.634C109.582 355.534 109.573 355.41 109.573 355.286C109.557 353.489 109.698 351.7 109.747 349.903C109.781 348.834 109.35 346.896 110.112 346.126C110.41 348.959 109.88 351.824 110.369 354.656H110.377Z" fill="#D6A27F"/>
<path d="M114.393 345.356C114.981 351.327 115.578 357.298 116.166 363.261C116.215 363.733 116.248 364.238 116 364.644C115.752 365.05 115.089 365.207 114.816 364.826C114.128 359.683 113.847 354.482 113.954 349.29C113.979 348.039 114.029 346.772 113.681 345.571C113.458 344.785 112.729 343.675 113.507 343.104C114.145 343.642 114.311 344.553 114.393 345.356Z" fill="#D6A27F"/>
<path d="M121.963 360.429C121.979 360.752 121.988 361.083 121.988 361.406C121.615 361.182 121.474 360.71 121.458 360.271C121.416 359.104 121.159 357.77 121.292 356.636C121.689 357.845 121.888 359.162 121.963 360.429Z" fill="#D6A27F"/>
<path d="M126.294 360.362C126.816 361.389 127.859 362.135 128.199 363.236C128.348 363.733 128.232 364.42 127.727 364.536C127.238 364.644 126.849 364.147 126.65 363.683C126.385 363.07 126.211 362.424 126.145 361.762C126.112 361.489 126.104 361.199 126.021 360.934C125.921 360.619 125.723 360.346 125.557 360.064C125.209 359.484 124.845 358.756 125.027 358.126C125.855 358.176 125.946 359.658 126.294 360.354V360.362Z" fill="#D6A27F"/>
<path d="M133.607 355.749C134.021 357.497 134.112 359.302 134.137 361.099C134.162 362.979 134.12 364.859 134.021 366.731C134.004 367.012 133.88 367.385 133.607 367.344C133.441 367.319 133.342 367.153 133.275 366.996C131.859 363.766 132.944 360.023 132.464 356.528C132.232 354.822 131.429 353.066 131.503 351.344C132.696 351.907 133.317 354.507 133.615 355.741L133.607 355.749Z" fill="#D6A27F"/>
<path d="M139.511 353.182C139.528 354.872 139.404 356.561 139.147 358.226C139.089 358.59 138.923 359.046 138.559 359.054C138.335 358.706 138.335 358.275 138.335 357.87C138.335 356.47 137.565 351.6 139.089 351.004C139.495 351.6 139.503 352.462 139.511 353.182Z" fill="#D6A27F"/>
<path d="M142.079 366.772C142.021 368.048 141.888 369.422 141.043 370.375C141.043 368.627 141.035 366.88 141.027 365.133C141.027 364.296 140.522 360.727 141.077 360.213C142.493 358.905 142.12 366.019 142.087 366.772H142.079Z" fill="#D6A27F"/>
<path d="M147.81 360.892C147.81 361.571 147.602 362.292 147.097 362.747C146.956 362.872 146.774 362.988 146.592 362.946C146.335 362.88 146.244 362.573 146.203 362.308C146.029 361.166 145.226 357.737 146.807 357.282C147.346 358.292 147.801 359.733 147.81 360.892Z" fill="#D6A27F"/>
<path d="M151.76 359.965C151.445 359.484 151.354 358.905 151.263 358.333C151.147 357.605 150.253 354.946 151.371 355.029C151.594 356.321 151.122 358.847 151.76 359.965Z" fill="#D6A27F"/>
<path d="M156.422 355.054C156.398 356.255 156.373 357.455 156.348 358.656C156.29 361.671 156.215 364.76 155.106 367.567C154.783 367.46 154.716 367.037 154.708 366.698C154.65 364.462 154.592 362.217 154.899 359.998C155.089 358.64 155.412 357.298 155.52 355.923C155.611 354.839 155.048 353.282 155.536 352.321C156.464 352.743 156.431 354.143 156.414 355.046L156.422 355.054Z" fill="#D6A27F"/>
<path d="M159.462 360.561C159.685 359.219 158.393 356.271 159.669 355.435C160.215 356.876 159.71 359.054 159.462 360.561Z" fill="#D6A27F"/>
<path d="M163.271 362.946C163.255 363.6 163.387 364.255 163.677 364.843C163.975 365.455 164.406 366.234 163.942 366.739C163.288 365.812 163.006 364.627 163.18 363.509" fill="#D6A27F"/>
<path d="M168.571 367.733C168.596 367.965 168.621 368.197 168.646 368.429C168.364 367.07 167.694 365.348 168.166 363.998C168.356 365.19 168.571 366.524 168.571 367.733Z" fill="#D6A27F"/>
<path d="M170.874 357.828C170.783 358.143 171.188 358.358 171.379 358.623C171.511 358.805 171.545 359.046 171.569 359.269C171.718 360.437 171.876 361.613 172.025 362.781C171.122 361.547 170.733 359.948 170.965 358.433" fill="#D6A27F"/>
<path d="M174.004 354.756C174.269 354.615 174.592 354.814 174.783 355.046C175.453 355.874 175.346 357.066 175.188 358.126C174.692 357.29 174.277 356.404 173.963 355.476" fill="#D6A27F"/>
<path d="M178.766 354.598C178.965 355.658 179.023 356.752 178.94 357.828C178.973 357.265 178.774 356.694 178.41 356.263" fill="#D6A27F"/>
<path d="M181.35 351.783C181.689 352.031 181.764 352.495 181.797 352.909C181.822 353.282 181.822 353.663 181.673 354.002C181.524 354.342 181.159 354.615 180.795 354.557C180.737 353.961 180.762 353.364 180.861 352.776" fill="#D6A27F"/>
<path d="M82.8157 266.789L74.5342 323.104C74.5342 323.104 72.0497 340.495 76.1905 339.667C80.3313 338.839 77.0186 323.932 80.3313 325.588C83.6439 327.244 77.0186 343.807 80.3313 346.292C83.6439 348.776 83.6439 331.385 86.9565 328.072C90.2692 324.76 84.4721 342.979 88.6128 342.151C92.7536 341.323 88.6128 318.135 92.7536 328.901C96.8944 339.667 85.3002 357.886 92.7536 356.23C100.207 354.573 97.3168 333.05 100.207 338.839C102.692 343.807 97.7226 361.199 102.692 361.199C107.66 361.199 101.863 335.526 104.348 335.526C106.832 335.526 104.348 352.917 106.832 352.917C109.317 352.917 106.004 342.979 108.489 342.979C110.973 342.979 107.66 356.23 110.145 356.23C112.629 356.23 110.973 342.151 112.629 342.151C114.286 342.151 112.629 365.34 115.942 365.34C119.255 365.34 116.77 351.261 118.427 351.261C120.083 351.261 120.911 363.683 123.395 363.683C125.88 363.683 121.739 355.402 123.395 355.402C125.052 355.402 125.88 365.34 128.364 365.34C130.849 365.34 126.708 348.776 130.021 348.776C133.333 348.776 131.677 368.652 134.161 368.652C136.646 368.652 134.99 348.776 137.474 348.776C139.959 348.776 136.646 363.683 138.302 363.683C139.959 363.683 139.13 353.745 140.787 353.745C142.443 353.745 139.13 371.137 141.615 371.137C144.099 371.137 143.271 352.917 144.928 352.917C146.584 352.917 144.928 364.511 146.584 364.511C148.24 364.511 148.24 352.917 149.896 352.917C151.553 352.917 149.896 361.199 151.553 361.199C153.209 361.199 152.381 351.261 154.037 352.089C155.694 352.917 153.209 370.308 155.694 370.308C158.178 370.308 157.35 352.917 158.178 352.917C159.006 352.917 158.178 362.855 159.834 362.027C161.491 361.199 159.834 352.089 162.319 352.089C164.803 352.089 161.491 366.996 163.975 366.996C166.46 366.996 163.147 361.199 165.631 361.199C168.116 361.199 167.288 368.652 168.944 368.652C170.6 368.652 168.116 357.058 169.772 357.058C171.429 357.058 170.6 365.34 172.257 365.34C173.913 365.34 171.429 353.745 173.085 353.745C174.741 353.745 173.913 361.199 175.569 361.199C177.226 361.199 174.741 353.745 177.226 353.745C179.71 353.745 177.226 360.371 178.882 360.371C180.538 360.371 178.882 351.261 180.538 351.261C182.195 351.261 179.71 354.573 181.366 354.573C183.023 354.573 183.851 344.636 183.851 344.636" stroke="black" stroke-miterlimit="10"/>
<path d="M236.712 251.153C236.936 253.381 236.331 255.807 234.633 257.257C234.426 257.431 234.178 257.596 233.913 257.547C233.723 257.513 233.573 257.373 233.449 257.224C231.255 254.739 232.033 250.259 230.791 247.261C229.648 244.503 227.089 242.408 228.389 239.17C231.163 232.296 236.447 248.462 236.712 251.145V251.153Z" fill="#DDAF8A"/>
<path d="M211.429 252.727C211.429 253.663 211.495 254.607 211.395 255.542C211.238 256.934 210.691 258.284 209.838 259.393C209.573 259.733 209.242 260.072 208.82 260.147C208.041 260.271 207.453 259.476 207.13 258.756C206.112 256.462 205.814 253.928 205.532 251.427C205.466 250.847 205.4 250.259 205.482 249.679C205.64 248.652 206.253 247.749 206.907 246.938C207.876 245.745 212.166 240.685 213.424 242.383C214.501 243.824 211.437 250.714 211.437 252.727H211.429Z" fill="#E8BB91"/>
<path d="M226.675 261.447C227.826 261.282 229.433 261.472 229.549 262.631C229.623 263.369 228.928 263.981 228.215 264.188C227.503 264.395 226.741 264.346 226.012 264.495C223.95 264.925 218.658 269.563 217.607 265.248C216.787 261.87 224.422 261.77 226.667 261.439L226.675 261.447Z" fill="#E8BB91"/>
<path d="M229.325 242.408C226.841 241.356 225.317 238.408 225.913 235.774C225.971 235.518 226.062 235.253 226.269 235.095C226.443 234.971 226.658 234.946 226.865 234.938C228.116 234.847 229.516 234.954 230.393 235.857C231.594 237.091 231.279 239.244 232.389 240.553" fill="#DDAF8A"/>
<path d="M168.447 183.89C163.917 185.555 160.472 189.886 159.884 194.673C159.329 199.153 161.963 204.395 166.451 204.925C169.59 205.298 172.721 203.327 175.826 203.923C178.162 204.379 179.967 206.184 182.104 207.219C183.652 207.965 185.358 208.304 187.048 208.636C193.491 209.894 199.926 211.161 206.369 212.42C209.482 213.033 213.118 213.513 215.478 211.385C217.375 209.671 217.723 206.888 218.518 204.453C220.058 199.725 223.669 195.551 223.636 190.582C223.611 185.555 219.669 181.224 215.089 179.178C210.509 177.132 205.342 176.909 200.323 176.718" fill="#E5B288"/>
<path d="M60.0497 169.265C58.2112 169.373 56.2402 169.53 54.8157 170.698C53.7805 171.542 53.1843 172.81 52.6791 174.043C50.352 179.783 49.2588 186.027 49.5072 192.213C49.6398 195.451 50.1946 198.839 52.1905 201.389C51.8012 197.066 51.4037 192.702 52.0248 188.404C52.646 184.106 54.3685 179.824 57.6066 176.942C59.1304 175.576 60.9441 174.565 62.4679 173.19C63.9917 171.816 65.234 169.919 65.1015 167.874" fill="#D39D79"/>
<path d="M63.7102 202.863C63.5942 204.561 63.8841 206.466 65.2091 207.542C65.176 207.112 65.1511 206.681 65.1346 206.259C65.0518 203.816 65.3002 201.364 65.8799 198.996C66.0207 198.416 66.2526 197.845 66.3437 197.282C64.5383 198.474 63.8509 200.768 63.7102 202.863Z" fill="#D39D79"/>
<path d="M60.7039 224.271C60.4472 224.337 60.1656 224.404 59.9917 224.611C59.6522 225.025 59.9503 225.638 60.2567 226.077C61.383 227.708 62.5176 229.348 63.6439 230.979C64.5135 232.23 65.4824 233.563 66.9317 234.035C67.8509 234.333 68.853 234.234 69.7888 234.458C71.1139 234.764 72.2319 235.675 73.5487 236.023C74.8654 236.371 76.646 235.766 76.7205 234.408C76.7868 233.083 75.2547 232.313 73.9545 232.072C72.3396 231.783 70.6253 231.749 69.2008 230.93C68.1242 230.308 67.3292 229.298 66.3106 228.594C65.6398 228.13 64.853 227.791 64.323 227.161C63.4037 226.06 63.9338 224.462 64.6294 223.418C63.4203 223.219 62.0124 223.948 60.7039 224.271Z" fill="#D6A27F"/>
<path d="M83.6273 213.878C82.824 208.553 82.8986 203.94 84.0331 198.665C81.1429 201.132 83.1139 210.474 83.6273 213.878Z" fill="#D6A07C"/>
<path d="M238.948 212.503C239.081 212.752 239.23 213.017 239.462 213.182C240.141 213.679 241.168 213.041 241.375 212.222C241.582 211.402 241.25 210.557 240.936 209.778C238.675 204.164 238.46 200.13 241.714 195.153C234.004 195.426 236.795 208.553 238.948 212.503Z" fill="#E8BB91"/>
<path d="M251.677 211.443C252.53 211.576 253.482 211.625 254.161 211.095C254.667 210.698 254.882 210.101 254.948 209.455C255.006 208.917 254.948 208.337 254.89 207.816C254.857 207.526 254.807 207.219 254.6 207.021C254.302 206.739 253.83 206.814 253.433 206.888C251.809 207.195 249.159 206.615 248.439 208.578C247.578 210.896 249.93 211.186 251.685 211.451L251.677 211.443Z" fill="#E8BB91"/>
<path d="M166.832 200.992C168.315 202.516 170.104 203.7 171.95 204.752C179.52 209.066 188.265 211.277 196.969 211.103C199.379 211.054 202.311 210.424 203.006 208.122" fill="#E8BB91"/>
<path d="M241.681 205.58C244.555 206.598 247.164 208.222 249.756 209.828C251.975 211.211 254.195 212.586 256.489 213.853C256.671 213.952 256.936 214.043 257.077 213.886C257.143 213.812 257.151 213.704 257.159 213.605C257.308 210.863 257.383 207.857 255.694 205.704" fill="#E8BB91"/>
<path d="M254.849 188.925C256.166 189.025 257.507 188.859 258.807 189.099C260.489 189.406 261.971 190.358 263.487 191.137C265.002 191.915 266.725 192.561 268.398 192.188C270.07 191.816 271.511 190.06 270.965 188.437" fill="#E8BB91"/>
<path d="M120.398 155.319L90.6832 162.855C90.6832 162.855 88.8282 166.06 87.3292 169.282C85.1925 170.159 83.2629 171.054 81.5735 171.965C81.5735 171.965 70.8074 152.089 52.588 159.542C34.3685 166.996 42.6501 189.356 42.6501 189.356C42.6501 189.356 46.7909 201.778 47.619 208.404C48.4472 215.029 53.4161 220.826 53.4161 220.826C53.4161 220.826 54.2443 225.795 55.9006 229.108C57.5569 232.42 62.1118 238.631 70.3934 241.116C75.1801 242.549 79.1387 240.942 81.6315 239.335C81.5901 239.46 81.5569 239.584 81.5155 239.7C78.8406 241.116 80.3313 241.116 80.3313 241.116C80.3313 241.116 80.3478 241.605 80.3809 242.441C80.2484 242.689 80.1159 242.938 79.9669 243.17C78.7081 243.99 77.3168 244.834 75.7764 245.671C72.6211 247.393 73.1429 256.66 75.205 269.066C74.3106 268.462 73.6646 268.122 73.706 268.445C74.4762 274.557 76.3313 280.321 78.236 284.975C78.9814 288.578 79.7764 292.279 80.5797 295.99C75.5445 293.017 68.9607 277.257 66.2526 275.899C62.9814 274.267 73.4161 295.195 73.6977 295.766C61.4741 286.797 53.2588 257.778 53.0104 256.876C57.9627 288.321 44.7205 291.634 44.7205 291.634C50.5176 282.524 40.5797 257.679 40.5797 257.679C35.6108 277.555 38.9234 282.524 38.9234 282.524C29.8137 279.211 33.9544 251.054 33.9544 251.054C25.6729 264.304 14.0787 258.507 14.0787 258.507C27.3292 250.226 31.47 226.209 31.47 226.209C16.5631 251.054 0 238.631 0 238.631C41.4079 236.975 23.1884 191.426 23.1884 191.426C17.3913 198.052 7.45342 195.567 7.45342 195.567C7.45342 195.567 12.4224 192.255 19.8758 185.629C27.3292 179.004 28.1573 174.035 28.1573 174.035C18.4099 179.236 16.8199 173.215 16.588 170.383C17.5735 175.542 29.8137 169.066 29.8137 169.066C29.8137 169.066 39.7516 164.925 30.6418 157.472C21.5321 150.019 37.2671 134.284 37.2671 134.284L33.9544 147.534C30.6418 160.785 48.0331 155.816 48.0331 155.816L50.9317 149.605C76.6046 141.348 100.207 140.909 100.207 140.909C106.576 146.573 113.35 151.327 120.398 155.319Z" fill="#0C0602"/>
<path d="M223.296 321.754C223.197 324.031 222.923 326.64 221.118 330.557C216.149 341.323 205.383 344.636 205.383 344.636C205.383 344.636 183.023 347.12 169.772 346.292C156.522 345.464 139.959 339.667 128.364 333.041C116.77 326.416 107.66 318.135 95.2381 301.571C82.8157 285.008 82.8157 269.273 81.9876 266.789C81.2919 264.718 80.6128 248.354 80.3975 242.888C86.3023 239.004 89.0269 235.733 89.0269 235.733L89.8551 221.654C89.8551 221.654 91.5114 210.06 92.3395 206.747C93.1677 203.435 92.2567 188.586 90.6832 182.731C89.5321 178.449 90.6832 176.106 81.5735 171.965C78.2443 170.449 101.333 148.014 107.246 147.12L149.482 159.542L142.857 164.511L137.888 167.824L140.364 167.004C140.257 167.104 139.337 167.923 136.232 169.48C133.126 171.037 131.478 171.857 131.28 171.957L134.559 171.145C134.369 171.236 132.82 172.014 131.263 172.793C129.607 173.621 126.294 176.106 126.294 176.106L124.638 178.59C124.638 178.59 126.294 177.762 127.122 176.934C127.95 176.106 126.294 178.59 122.981 180.246C119.669 181.903 120.497 182.731 120.497 182.731L122.153 181.903C122.153 181.903 120.497 183.559 118.841 184.387C117.184 185.215 117.184 186.872 117.184 186.872C117.184 186.872 118.841 186.872 119.669 186.043L115.528 190.184C115.528 190.184 114.7 191.012 114.7 193.497C114.7 195.981 113.872 194.325 113.872 194.325L113.043 196.81C113.043 196.81 114.7 196.81 115.528 195.981C116.356 195.153 113.872 198.466 113.043 198.466C112.215 198.466 112.215 204.263 112.215 204.263C112.215 204.263 112.878 203.6 113.019 202.275C112.969 203.89 112.795 207.576 112.215 207.576C111.387 207.576 111.387 215.857 111.387 215.857C111.387 215.857 112.215 215.029 112.215 212.545C112.215 210.06 113.872 215.857 110.559 218.342C110.559 218.342 109.731 220.826 110.559 221.654L109.731 222.482C109.731 222.482 110.559 225.787 112.207 224.975C112.116 225.066 111.387 225.845 111.387 226.623C111.387 227.451 112.215 229.936 112.215 229.936C112.215 229.936 113.043 229.108 113.043 228.28C113.043 227.451 113.872 229.936 113.043 230.764L113.872 234.905C113.872 234.905 114.7 234.077 114.7 232.42C114.7 230.764 116.356 237.389 114.7 237.389C114.7 237.389 113.872 239.046 115.528 239.874C115.528 239.874 116.356 239.874 116.356 239.046C116.356 238.217 117.184 240.702 117.184 242.358C117.184 244.014 119.669 248.155 119.669 248.155C119.669 248.155 120.497 247.327 118.849 244.851C119.023 245.075 122.128 249.05 121.325 251.468C120.497 253.952 122.981 255.609 122.981 255.609L122.153 253.124C122.153 253.124 124.638 255.609 123.81 258.093L125.466 260.578V258.093C125.466 258.093 126.294 260.578 126.294 261.406C126.294 262.234 127.122 264.718 127.122 264.718L127.942 263.907C127.859 264.097 127.222 265.596 128.778 266.375L127.95 267.203C127.95 267.203 128.778 270.516 129.607 270.516C130.369 270.516 129.731 269.124 129.623 268.892C129.83 269.199 131.321 271.46 132.091 273C132.919 274.656 134.576 277.141 134.576 277.141C134.576 277.141 135.404 275.484 134.576 274.656C133.747 273.828 135.404 273 136.232 279.625C136.232 279.625 137.06 281.282 137.888 280.453C138.716 279.625 137.06 278.797 137.06 278.797C137.06 278.797 139.545 278.797 139.545 282.11C139.545 285.422 141.201 287.907 141.201 287.907C141.201 287.907 142.029 287.907 142.029 285.422C142.029 282.938 142.029 289.563 142.857 290.391C143.685 291.219 144.513 292.876 144.513 292.876C144.513 292.876 145.085 291.725 144.795 290.863C145.342 291.658 146.17 293.099 146.17 294.532C146.17 294.532 147.826 297.845 148.654 298.673C149.449 299.468 148.721 296.47 147.934 295.484C148.704 296.279 151.329 299.046 151.967 300.329C152.795 301.986 155.28 302.814 155.28 302.814C155.28 302.814 152.795 300.329 154.451 300.329C154.451 300.329 156.936 304.47 157.764 303.642C157.764 303.642 161.905 306.126 160.248 304.47C160.248 304.47 161.077 304.47 162.733 305.298C164.389 306.126 164.389 306.954 164.389 306.954C164.389 306.954 166.046 311.923 166.046 310.267V311.923C166.046 311.923 166.874 311.923 166.874 311.095C166.874 310.267 167.702 311.923 167.702 313.58C167.702 315.236 166.874 316.064 167.702 317.72C168.53 319.377 168.53 315.236 168.53 315.236C168.53 315.236 169.358 318.549 169.358 320.205C169.358 321.861 171.014 323.518 171.014 323.518L170.186 321.033C170.186 321.033 171.843 322.689 171.843 323.518C171.843 324.346 175.155 326.83 175.155 326.83C175.155 326.83 175.155 324.346 174.327 324.346C174.327 324.346 174.327 322.689 177.64 327.658C177.64 327.658 182.609 330.971 183.437 330.143C184.265 329.315 180.952 329.315 180.952 329.315C180.952 329.315 181.781 328.487 185.921 330.143H188.406C188.406 330.143 185.921 330.143 186.749 329.315C186.749 329.315 194.203 331.799 192.547 330.971C190.948 330.168 193.988 329.373 194.195 329.323C194.021 329.439 191.843 330.971 195.031 330.971C198.219 330.971 196.687 329.315 196.687 329.315C196.687 329.315 197.516 328.487 199.172 330.143C200.828 331.799 202.484 330.143 202.484 330.143C202.484 330.143 203.313 328.487 203.313 330.143C203.313 331.799 204.969 330.143 204.969 330.143H207.453L208.861 328.743C208.439 329.215 207.66 330.143 208.282 330.143C209.11 330.143 210.766 329.315 210.766 329.315L209.938 328.487C209.938 328.487 213.251 328.487 213.251 329.315C213.251 329.986 214.327 329.033 214.741 328.652C214.402 329.025 213.764 329.803 215.735 328.487C218.219 326.83 216.563 326.83 216.563 326.83C216.563 326.83 218.219 326.002 219.048 326.002C219.876 326.002 220.704 324.346 220.704 324.346L221.532 321.033C221.532 321.033 221.532 323.518 222.36 322.689C222.542 322.507 222.874 322.176 223.296 321.754Z" fill="#0C0602"/>
<path d="M264.182 196.395C253.416 202.193 256.729 210.474 259.213 218.756C261.698 227.037 258.385 241.944 258.385 241.944C258.385 241.944 256.795 250.971 254.029 261.795C253.342 264.487 252.58 267.294 251.76 270.101C247.619 284.18 239.337 295.774 229.4 307.369C223.081 314.739 223.462 317.762 223.296 321.754C222.874 322.176 222.542 322.507 222.36 322.689C221.532 323.518 221.532 321.033 221.532 321.033L220.704 324.346C220.704 324.346 219.876 326.002 219.048 326.002C218.219 326.002 216.563 326.83 216.563 326.83C216.563 326.83 218.219 326.83 215.735 328.487C213.764 329.803 214.402 329.025 214.741 328.652C214.327 329.033 213.251 329.986 213.251 329.315C213.251 328.487 209.938 328.487 209.938 328.487L210.766 329.315C210.766 329.315 209.11 330.143 208.282 330.143C207.66 330.143 208.439 329.215 208.861 328.743L207.453 330.143H204.969C204.969 330.143 203.313 331.799 203.313 330.143C203.313 328.487 202.484 330.143 202.484 330.143C202.484 330.143 200.828 331.799 199.172 330.143C197.516 328.487 196.687 329.315 196.687 329.315C196.687 329.315 198.344 330.971 195.031 330.971C191.718 330.971 194.021 329.439 194.195 329.323C193.988 329.373 190.948 330.168 192.547 330.971C194.203 331.799 186.749 329.315 186.749 329.315C185.921 330.143 188.406 330.143 188.406 330.143H185.921C181.781 328.487 180.952 329.315 180.952 329.315C180.952 329.315 184.265 329.315 183.437 330.143C182.609 330.971 177.64 327.658 177.64 327.658C174.327 322.689 174.327 324.346 174.327 324.346C175.155 324.346 175.155 326.83 175.155 326.83C175.155 326.83 171.843 324.346 171.843 323.518C171.843 322.689 170.186 321.033 170.186 321.033L171.014 323.518C171.014 323.518 169.358 321.861 169.358 320.205C169.358 318.549 168.53 315.236 168.53 315.236C168.53 315.236 168.53 319.377 167.702 317.72C166.874 316.064 167.702 315.236 167.702 313.58C167.702 311.923 166.874 310.267 166.874 311.095C166.874 311.923 166.046 311.923 166.046 311.923V310.267C166.046 311.923 164.389 306.954 164.389 306.954C164.389 306.954 164.389 306.126 162.733 305.298C161.077 304.47 160.248 304.47 160.248 304.47C161.905 306.126 157.764 303.642 157.764 303.642C156.936 304.47 154.451 300.329 154.451 300.329C152.795 300.329 155.279 302.814 155.279 302.814C155.279 302.814 152.795 301.986 151.967 300.329C151.329 299.046 148.704 296.279 147.934 295.484C148.72 296.47 149.449 299.468 148.654 298.673C147.826 297.845 146.17 294.532 146.17 294.532C146.17 293.099 145.342 291.658 144.795 290.863C145.085 291.725 144.513 292.876 144.513 292.876C144.513 292.876 143.685 291.219 142.857 290.391C142.029 289.563 142.029 282.938 142.029 285.422C142.029 287.907 141.201 287.907 141.201 287.907C141.201 287.907 139.545 285.422 139.545 282.11C139.545 278.797 137.06 278.797 137.06 278.797C137.06 278.797 138.716 279.625 137.888 280.453C137.06 281.282 136.232 279.625 136.232 279.625C135.404 273 133.747 273.828 134.576 274.656C135.404 275.484 134.576 277.141 134.576 277.141C134.576 277.141 132.919 274.656 132.091 273C131.321 271.46 129.83 269.199 129.623 268.892C129.731 269.124 130.369 270.516 129.607 270.516C128.778 270.516 127.95 267.203 127.95 267.203L128.778 266.375C127.222 265.596 127.859 264.097 127.942 263.907L127.122 264.718C127.122 264.718 126.294 262.234 126.294 261.406C126.294 260.578 125.466 258.093 125.466 258.093V260.578L123.81 258.093C124.638 255.609 122.153 253.124 122.153 253.124L122.981 255.609C122.981 255.609 120.497 253.952 121.325 251.468C122.128 249.05 119.023 245.075 118.849 244.851C120.497 247.327 119.669 248.155 119.669 248.155C119.669 248.155 117.184 244.014 117.184 242.358C117.184 240.702 116.356 238.217 116.356 239.046C116.356 239.874 115.528 239.874 115.528 239.874C113.872 239.046 114.7 237.389 114.7 237.389C116.356 237.389 114.7 230.764 114.7 232.42C114.7 234.077 113.872 234.905 113.872 234.905L113.043 230.764C113.872 229.936 113.043 227.451 113.043 228.28C113.043 229.108 112.215 229.936 112.215 229.936C112.215 229.936 111.387 227.451 111.387 226.623C111.387 225.845 112.116 225.066 112.207 224.975C110.559 225.787 109.731 222.482 109.731 222.482L110.559 221.654C109.731 220.826 110.559 218.342 110.559 218.342C113.872 215.857 112.215 210.06 112.215 212.545C112.215 215.029 111.387 215.857 111.387 215.857C111.387 215.857 111.387 207.576 112.215 207.576C112.795 207.576 112.969 203.89 113.019 202.275C112.878 203.6 112.215 204.263 112.215 204.263C112.215 204.263 112.215 198.466 113.043 198.466C113.872 198.466 116.356 195.153 115.528 195.981C114.7 196.81 113.043 196.81 113.043 196.81L113.872 194.325C113.872 194.325 114.7 195.981 114.7 193.497C114.7 191.012 115.528 190.184 115.528 190.184L119.669 186.043C118.841 186.872 117.184 186.872 117.184 186.872C117.184 186.872 117.184 185.215 118.841 184.387C120.497 183.559 122.153 181.903 122.153 181.903L120.497 182.731C120.497 182.731 119.669 181.903 122.981 180.246C126.294 178.59 127.95 176.106 127.122 176.934C126.294 177.762 124.638 178.59 124.638 178.59L126.294 176.106C126.294 176.106 129.607 173.621 131.263 172.793C132.82 172.014 134.369 171.236 134.559 171.145L131.279 171.957C131.478 171.857 133.126 171.037 136.232 169.48C139.337 167.923 140.257 167.104 140.364 167.004L137.888 167.824L142.857 164.511L149.482 159.542L148.05 154.888C204.787 146.242 273.019 144.23 272.464 155.816C272.331 158.648 272.215 161.091 272.124 163.203C271.66 174.06 271.768 176.362 272.464 179.832C273.292 183.973 274.948 190.598 264.182 196.395Z" stroke="black" stroke-miterlimit="10"/>
<path d="M193.607 173.836C193.665 173.596 193.631 173.356 193.491 173.166C193.83 173.513 193.226 173.663 192.961 173.629C192.621 173.596 192.472 173.373 192.124 173.389C191.776 173.406 191.412 173.72 191.064 173.787C190.65 173.87 190.253 173.613 189.797 173.621C188.364 173.629 186.99 174.184 185.565 174.251C185.126 174.267 184.928 174.482 184.505 174.317C184.199 174.201 183.884 174.035 183.611 173.894C183.147 173.646 183.222 173.687 182.816 173.845C182.443 173.986 182.153 173.977 181.756 174.035C181.043 174.143 180.34 174.723 179.644 174.946C179.28 175.062 178.99 175.17 178.584 175.112C178.219 175.062 178.021 174.913 177.64 174.896C177.333 174.88 177.027 174.88 176.737 174.946C176.588 174.979 176.48 175.087 176.273 175.112C176.133 175.128 175.983 175.087 175.843 175.104C175.188 175.186 174.369 175.468 173.731 175.799C173.366 175.99 173.06 176.097 172.671 176.222C172.323 176.329 172 176.329 171.66 176.429C171.462 176.487 171.172 176.702 170.981 176.801C170.675 176.959 170.352 177.058 170.021 177.199C169.772 177.306 169.524 177.348 169.292 177.439C168.986 177.555 169.085 177.455 168.82 177.646C168.704 177.729 168.621 177.845 168.505 177.928C168.29 178.068 168.058 178.193 167.826 178.292C167.892 178.259 167.255 178.458 167.346 178.458C167.188 178.466 167.048 178.375 166.923 178.383C166.228 178.408 165.474 178.855 164.845 179.137C164.522 179.277 164.356 179.253 164.008 179.335C163.66 179.418 163.495 179.733 163.271 179.99C162.741 180.586 161.938 180.462 161.259 180.884C160.58 181.306 159.818 181.762 159.039 181.903C158.261 182.043 157.59 182.308 157.077 183.004C156.861 183.294 156.936 183.683 156.778 183.973C156.638 184.213 156.24 184.313 156.215 184.602C156.745 184.594 156.571 185.017 156.861 185.257C157.002 185.364 157.126 185.224 157.251 185.282C157.4 185.356 157.491 185.472 157.656 185.513C157.872 185.563 158.311 185.563 158.526 185.513C158.708 185.472 158.749 185.273 158.94 185.273C159.089 185.273 159.23 185.455 159.354 185.513C159.453 185.555 159.619 185.497 159.735 185.547C159.868 185.605 159.934 185.795 160.099 185.836C160.406 185.919 160.505 185.704 160.836 185.704C161.168 185.704 161.35 185.878 161.673 185.928C162.079 185.986 162.269 185.787 162.625 185.704C162.923 185.629 163.296 185.803 163.594 185.72C163.917 185.638 164.033 185.306 164.273 185.116C164.439 184.983 164.762 184.975 164.936 184.834C165.143 184.677 165.259 184.23 165.482 184.197C165.731 184.155 166.153 184.768 166.286 184.867C166.542 185.05 166.675 185.149 167.072 185.05C167.669 184.909 168.282 184.437 168.82 184.164C168.977 184.081 169.184 183.89 169.342 183.841C169.656 183.749 170.012 183.791 170.352 183.791C170.766 183.791 170.915 183.857 171.246 183.957C171.52 184.039 171.967 184.081 172.257 184.014C172.455 183.973 172.596 183.849 172.787 183.807C172.969 183.774 173.151 183.841 173.325 183.807C173.549 183.758 173.797 183.443 174.004 183.418C174.294 183.385 174.311 183.534 174.576 183.6C174.948 183.683 175.296 183.658 175.652 183.791C175.942 183.907 176 184.039 176.364 183.99C176.613 183.957 176.803 183.791 177.126 183.791C177.83 183.799 178.6 183.857 179.238 183.683C179.52 183.609 179.776 183.617 180.091 183.584C180.431 183.551 180.588 183.402 180.928 183.36C181.607 183.286 182.36 183.36 183.048 183.36C183.387 183.36 183.768 183.41 184.108 183.36C184.563 183.294 184.621 183.319 185.06 183.468C185.524 183.617 185.59 183.518 186.012 183.402C186.377 183.302 186.791 183.36 187.172 183.352C187.487 183.352 187.776 183.335 188.075 183.402C188.265 183.443 188.613 183.691 188.803 183.733C189.118 183.791 189.458 183.733 189.764 183.824C189.988 183.89 190.195 184.155 190.435 184.213C190.874 184.321 190.94 184.064 191.28 183.981C191.578 183.907 191.934 184.039 192.24 183.981C192.588 183.915 192.828 183.816 193.193 183.791C193.391 183.783 193.64 183.658 193.83 183.658C194.079 183.667 194.244 183.882 194.468 183.948C194.774 184.048 195.106 183.973 195.42 183.99C195.768 184.006 195.859 184.147 196.149 184.213C196.439 184.279 196.919 184.213 197.217 184.205C197.615 184.205 197.714 184.346 198.054 184.429C198.261 184.478 198.501 184.354 198.708 184.404C198.807 184.429 198.899 184.569 198.957 184.578C199.28 184.652 199.644 184.66 199.967 184.578C200.663 184.395 201.342 184.205 202.079 184.205C202.493 184.205 202.741 184.362 203.139 184.429C203.404 184.47 203.669 184.412 203.934 184.462C204.075 184.495 204.199 184.602 204.398 184.627C204.522 184.644 204.704 184.627 204.828 184.627C205.251 184.627 205.59 184.652 205.988 184.735C206.642 184.876 207.313 184.834 208 184.843C208.687 184.851 209.391 184.445 210.128 184.619C210.683 184.752 211.056 185.174 211.702 185.033C212.075 184.959 212.224 184.818 212.605 184.884C212.679 184.901 212.845 185.033 212.961 185.058C213.184 185.108 213.433 185.05 213.665 185.099C213.739 185.116 213.805 185.248 213.913 185.273C214.095 185.315 214.36 185.265 214.559 185.265C214.948 185.265 215.453 185.348 215.826 185.273C216.174 185.207 216.356 184.917 216.663 184.826C216.886 184.768 217.706 184.776 217.896 184.876C218.137 185.008 218.253 185.19 218.518 185.306C218.816 185.439 219.114 185.522 219.412 185.679C220.033 186.002 220.58 186.118 221.317 186.101C221.921 186.093 222.484 186.292 222.907 186.739C223.395 187.253 223.959 187.236 224.596 187.393C224.928 187.476 225.317 187.692 225.598 187.749C225.938 187.824 226.294 187.824 226.609 187.899C227.271 188.064 227.917 188.404 228.687 188.18L228.762 187.832C229.358 187.667 229.507 188.031 229.996 188.122C230.385 188.197 230.932 187.857 231.238 187.534C231.147 187.344 230.857 186.971 230.832 186.747C230.758 186.027 231.155 186.507 231.478 186.549C231.834 186.598 232.215 186.317 232.083 185.944C231.959 185.621 231.511 185.712 231.892 185.306C231.586 185.257 230.526 185.066 230.468 184.578C230.443 184.337 230.716 184.304 230.857 184.205C231.064 184.056 231.255 183.899 231.462 183.733C231.222 183.228 231.023 183.062 230.592 182.731C230.211 182.441 230.203 182.466 229.797 182.317C229.441 182.184 229.366 181.944 229.118 181.671C228.853 181.381 228.762 181.348 228.431 181.348C228.248 181.348 228.149 181.455 227.942 181.414C227.975 181.414 227.619 181.199 227.685 181.248C227.495 181.124 227.321 180.983 227.13 180.851C226.675 180.528 226.849 180.685 226.634 180.188C226.418 179.691 225.805 179.675 225.416 179.294C225.267 179.145 225.101 179.021 224.944 178.88C224.505 178.491 224.613 178.217 224.315 177.754C223.983 177.24 223.263 177.05 222.725 176.81C222.128 176.544 221.756 176.42 221.3 175.965C221.068 175.733 220.845 175.609 220.663 175.335C220.513 175.128 220.431 174.93 220.24 174.747C220.05 174.565 219.718 174.3 219.437 174.308C219.114 174.308 219.031 174.532 218.65 174.433C217.971 174.259 218.104 173.696 217.706 173.257C217.557 173.099 217.267 172.901 217.077 172.834C216.986 172.801 216.737 172.81 216.696 172.793C216.588 172.743 216.406 172.561 216.29 172.553C216.008 172.536 215.644 172.776 215.329 172.785C215.039 172.801 214.65 172.851 214.377 172.743C214.12 172.644 213.847 172.313 213.607 172.172C213.242 171.948 213.085 172.014 212.679 171.948C212.373 171.899 212.149 171.741 211.834 171.716C211.52 171.692 211.089 171.675 210.774 171.716C210.509 171.749 210.393 171.882 210.153 171.94C209.839 172.014 209.3 171.94 208.977 171.932C208.248 171.899 208.224 171.261 207.619 171.07C207.014 170.88 206.029 171.079 205.391 171.079C205.035 171.079 204.58 171.004 204.232 171.07C203.884 171.137 203.528 171.344 203.172 171.451C202.816 171.559 202.476 171.708 202.112 171.725C201.938 171.725 201.772 171.683 201.598 171.733C201.4 171.791 201.375 172.031 201.126 171.899L201.259 171.716" fill="#0C0602"/>
<path d="M250.062 191.385C250.211 190.631 251.636 190.706 251.735 189.944C251.321 189.754 251.164 190.11 250.832 190.101C250.791 190.101 250.526 189.944 250.484 189.903C250.319 189.754 250.377 189.679 250.228 189.522C250.012 189.298 249.797 189.141 249.474 189.306C249.358 189.364 249.284 189.563 249.176 189.638C249.06 189.721 248.894 189.721 248.77 189.803C248.994 189.679 248.936 189.489 249.052 189.306C249.168 189.124 249.391 188.983 249.532 188.834C249.805 188.545 250.12 187.89 249.714 187.551C250.584 187.617 251.47 187.219 252.116 186.665C252.431 186.391 252.679 186.085 253.019 185.87C253.433 185.613 253.863 185.679 254.286 185.447C254.783 185.174 255.221 185.331 255.768 185.19C256.091 185.108 256.257 185.025 256.613 185.025C256.969 185.025 257.159 185.025 257.466 184.868C257.739 184.727 257.805 184.694 258.087 184.602C258.368 184.511 258.551 184.429 258.783 184.23C258.915 184.114 259.039 183.882 259.188 183.799C259.395 183.683 259.619 183.841 259.785 183.642C259.917 183.857 260.157 183.783 260.265 183.584C260.538 183.816 261.3 183.6 261.582 183.344C261.863 183.087 261.78 182.797 261.946 182.532C262.045 182.375 262.277 182.176 262.426 182.068C262.816 181.762 263.304 181.596 263.76 181.381C263.975 181.282 264.215 181.174 264.439 181.124C264.696 181.058 265.002 181.041 265.284 180.975C265.565 180.909 265.838 180.876 266.128 180.818C266.451 180.752 266.617 180.495 266.89 180.404C267.139 180.313 267.553 180.213 267.826 180.164C268.099 180.114 268.414 180.246 268.679 180.188C268.894 180.139 269.085 179.89 269.3 179.849C269.582 179.799 269.83 180.031 270.161 179.981C270.509 179.923 271.238 179.087 271.246 179.923C271.843 179.981 271.959 180.462 272.074 180.917C272.215 181.472 272.348 181.986 272.48 182.507C272.596 182.988 272.87 183.385 273.01 183.882C273.201 184.536 272.72 184.553 272.364 185.041C271.735 185.894 272.041 186.996 271.627 187.899C271.437 188.321 271.478 188.843 271.006 189.116C270.683 189.306 270.46 189.182 270.137 189.257C269.789 189.34 269.731 189.489 269.3 189.48" fill="#0C0602"/>
<path d="M218.054 268.453C218.335 269.215 217.822 269.472 217.441 269.994C217.681 269.952 217.921 270.043 218.128 270.085C218.029 270.482 217.731 270.963 217.491 271.319C218.012 271.965 217.466 273.53 216.886 273.986C216.53 274.267 216.174 274.259 215.76 274.449C215.395 274.623 215.147 274.971 214.774 275.095C213.963 275.377 213.184 274.375 212.207 274.623C211.892 274.706 211.487 275.046 211.172 275.17C210.576 275.402 209.896 275.675 209.242 275.882C209.209 275.774 209.085 275.65 209.068 275.518C208.132 276.172 208.737 275.957 207.818 275.609C207.288 275.41 207.197 275.576 206.708 275.683C205.872 275.857 205.019 276.072 204.19 276.263C203.288 276.47 202.344 276.205 201.4 276.346C200.364 276.495 198.807 275.957 197.979 276.776C197.35 277.398 196.903 278.449 196.232 279.161C195.694 279.733 194.981 280.006 194.228 280.238C192.712 280.71 190.17 280.429 189.888 282.383C189.068 282.466 187.296 284.072 186.658 282.954C185.847 283.849 184.662 283.774 183.652 284.238C182.907 284.578 181.913 285.663 181.019 284.959C182.319 285.315 180.099 287.004 179.884 287.426C179.636 287.915 179.834 288.213 179.785 288.743C179.735 289.356 179.321 289.745 179.263 290.366C179.213 290.888 179.42 291.377 179.412 291.89C179.412 292.271 179.164 292.602 179.147 292.967C179.13 293.29 179.453 293.911 179.627 294.259C179.959 294.921 179.867 295.402 180.075 296.188C180.969 295.882 182.128 295.998 182.849 296.553C183.337 295.683 184.157 295.402 184.894 294.739C185.698 294.027 186.733 293.522 187.52 292.785C187.992 292.346 188 292.271 188.538 292.072C189.35 291.774 189.938 291.484 190.642 290.963C191.064 290.648 191.395 290.408 191.644 289.936C192.041 289.19 192.124 289.133 192.894 288.627C193.126 288.47 193.325 288.263 193.573 288.122C194.468 287.625 195.42 287.849 196.389 287.675C197.358 287.501 198.302 287.012 199.271 286.88C200 286.772 200.356 286.988 200.894 286.573C201.284 286.267 201.515 285.696 201.988 285.447C203.279 284.76 205.126 285.174 206.476 285.257C207.081 285.29 207.503 285.166 208.066 285.066C209.01 284.917 209.88 285.099 210.799 284.81C211.255 284.669 211.727 284.636 212.174 284.511C212.671 284.379 212.919 284.072 213.408 283.932C214.369 283.65 215.478 284.081 216.472 283.774C217.358 283.501 218.244 283.228 219.13 282.971C220.132 282.689 221.002 282.954 221.491 281.952C222.079 280.76 221.4 280.495 221.449 279.402C221.474 278.921 221.872 278.524 221.896 278.118C221.921 277.712 221.499 277.455 221.491 277.157C221.482 276.793 221.731 276.52 221.896 276.18C222.228 275.484 222.153 274.822 222.195 274.035C222.277 272.429 222.948 270.698 222.783 269.116C222.725 268.545 222.658 268.429 222.145 268.164C221.838 268.006 221.366 267.94 221.01 267.774C220.795 267.675 220.787 267.509 220.53 267.468C220.066 267.393 219.752 267.783 219.354 267.874C218.956 267.965 218.484 267.915 218.07 268.429L218.054 268.453Z" fill="#0C0602"/>
<path d="M236.629 268.594C237.002 269.224 236.969 270.101 236.853 270.814C236.712 271.725 236.149 272.478 236.033 273.373C235.925 274.159 236.431 274.996 236.538 275.749C236.646 276.503 236.944 277.72 236.315 278.284C236.663 278.516 237.184 278.524 237.549 278.781C237.979 279.079 237.913 279.211 238.195 279.617C238.402 279.915 238.749 280.023 239.014 280.288C239.536 280.818 239.536 281.348 240.34 281.687C240.232 282.242 240.571 282.706 240.613 283.244C240.646 283.609 240.571 283.965 240.538 284.321C240.48 284.901 240.513 285.489 240.447 286.077C240.381 286.665 240.19 287.253 240.025 287.774C239.801 288.478 239.752 289.025 239.603 289.795C240.456 289.894 241.135 290.101 241.847 289.265C242.145 288.917 242.211 288.545 242.377 288.13C242.584 287.617 242.849 287.567 243.122 287.161C243.487 286.631 243.553 285.389 243.702 284.685C243.876 283.865 243.917 282.979 244.008 282.118C244.099 281.257 244.29 280.42 244.298 279.526C244.306 278.308 243.975 277.886 243.445 276.867C243.255 276.495 243.197 276.014 242.973 275.634C242.708 275.17 242.261 274.979 241.963 274.598C241.698 274.259 241.623 273.729 241.408 273.348C241.077 272.768 240.596 272.495 240.182 272.056C239.371 271.186 239.462 270.226 239.213 269.182C239.031 268.437 238.087 267.046 236.629 268.594Z" fill="#0C0602"/>
<path d="M213.126 309.373C212.72 309.928 212.19 309.414 211.743 309.538C211.511 309.605 211.023 310.077 210.882 310.342C210.749 310.582 210.667 311.004 210.642 311.269C210.609 311.584 210.484 312.147 210.501 312.536C211.685 312.495 211.718 313.282 212.422 313.812C212.72 314.043 213.656 314.126 213.077 314.781C213.466 314.814 213.921 314.623 214.369 314.631C214.542 314.631 214.791 314.814 214.973 314.723C215.222 314.607 214.973 314.416 215.097 314.3C215.743 313.704 217.143 313.381 217.366 312.511C217.524 311.89 217.176 311.65 216.936 311.161C216.828 310.946 216.754 310.756 216.671 310.565C216.621 310.449 216.878 310.317 216.696 310.077C216.489 309.812 215.611 309.87 215.304 309.795C214.998 309.72 214.791 309.571 214.493 309.522C214.178 309.472 213.905 309.605 213.135 309.364L213.126 309.373Z" fill="#0C0602"/>
<path d="M192.364 293.53C192.248 293.431 192.282 293.248 192.431 293.199C193.888 292.727 200.431 290.631 207.039 288.561C213.499 286.549 220.025 284.569 221.946 284.18C226.087 283.352 227.743 282.524 230.228 284.18C232.298 285.563 234.369 284.064 234.998 283.526C235.147 283.393 235.313 283.277 235.487 283.186C236.928 282.391 243.106 279.319 240.166 286.665C237.226 294.01 228.588 294.756 225.996 294.913C225.549 294.938 225.118 294.838 224.721 294.631C223.818 294.151 221.855 293.29 219.462 293.29C216.149 293.29 212.157 294.118 202.899 294.118C196.273 294.118 193.068 294.101 192.364 293.522V293.53Z" fill="#E28A80" stroke="black" stroke-miterlimit="10"/>
<path d="M192.961 294.946C192.961 294.946 199.586 309.025 217.805 307.368C236.025 305.712 234.369 294.946 234.369 294.946V294.118C234.369 294.118 235.197 292.462 232.712 294.118C230.799 295.393 227.536 296.081 226.087 296.602C225.64 296.76 224.886 296.735 224.431 296.602C222.841 296.139 219.106 295.6 217.805 294.946C216.149 294.118 198.758 297.431 192.961 294.946Z" fill="#E28A80" stroke="black" stroke-miterlimit="10"/>
<path d="M219.048 295.973C219.18 296.056 219.321 296.155 219.346 296.304C219.362 295.998 219.785 295.857 220.058 295.99C220.331 296.122 220.489 296.42 220.629 296.694C220.497 296.503 220.737 296.238 220.969 296.263C221.201 296.288 221.366 296.495 221.474 296.694C221.582 296.892 221.689 297.116 221.88 297.248C222.046 297.174 221.756 296.975 221.714 296.793C221.665 296.578 221.996 296.503 222.203 296.578C222.609 296.71 222.965 297.48 223.18 297.845C223.279 297.861 223.288 297.232 223.304 297.133C223.371 296.859 223.776 296.818 223.983 297C224.19 297.182 224.257 297.48 224.306 297.754C224.406 297.58 224.431 297.364 224.373 297.174C224.985 297.306 225.284 298.176 225.665 298.673C225.391 298.516 225.466 297.712 225.449 297.398C225.979 297.315 226.973 298.267 227.321 298.673C227.205 298.325 226.526 297.282 226.211 297.108C226.774 297.017 228.149 298.673 228.149 298.673C227.909 298.482 227.354 297.166 227.304 296.859C227.652 296.843 227.843 296.843 228.149 297.017C228.017 296.934 228.099 296.876 228.083 296.727C228.323 296.569 228.629 296.52 228.903 296.586C229.052 296.429 228.87 296.155 228.662 296.122C228.455 296.089 228.248 296.213 228.058 296.304C226.509 297.099 224.646 296.743 222.948 296.362C221.938 296.139 220.919 295.915 219.909 295.692C219.354 295.567 218.658 295.286 218.095 295.294C217.805 295.294 217.126 295.567 217.698 295.849C218.087 295.484 218.65 295.725 219.039 295.965L219.048 295.973Z" fill="#AA6860"/>
<path d="M223.429 293.108C223.412 293.331 223.395 293.547 223.387 293.77L223.867 293.381C223.942 293.323 224.058 293.257 224.124 293.331C224.157 293.364 224.157 293.422 224.157 293.472C224.157 293.721 224.174 294.052 224.414 294.118C224.671 294.193 224.861 293.878 224.952 293.621C225.176 293.754 224.985 294.135 225.126 294.358C225.226 294.516 225.466 294.524 225.615 294.416C225.764 294.308 225.847 294.135 225.913 293.961C225.979 293.787 226.021 293.605 226.128 293.456C226.161 293.845 226.178 294.242 226.178 294.631C226.377 294.433 226.551 294.201 226.691 293.952C226.791 294.126 226.915 294.275 227.064 294.408C227.097 294.201 227.197 294.01 227.346 293.87C227.486 293.944 227.453 294.176 227.578 294.284C227.669 294.366 227.818 294.342 227.909 294.275C228 294.209 228.066 294.093 228.116 293.986C228.166 294.143 228.257 294.284 228.373 294.4C227.884 294.714 227.246 294.532 226.667 294.59C226.393 294.615 226.128 294.698 225.863 294.673C225.747 294.665 225.631 294.631 225.515 294.598C224.952 294.441 224.406 294.251 223.876 294.01C223.702 293.936 223.205 293.795 223.106 293.621C222.956 293.348 223.246 293.298 223.412 293.108H223.429Z" fill="#AA6860"/>
<path d="M253.077 262.159C253.077 262.342 253.284 262.159 253.35 262.126C253.516 262.06 253.673 261.985 253.805 261.87C253.913 261.778 254.021 261.712 254.137 261.638C254.203 261.596 254.261 261.555 254.302 261.489C254.335 261.439 254.335 261.381 254.352 261.323C254.385 261.24 254.451 261.174 254.493 261.083C254.584 260.876 254.658 260.694 254.816 260.528C254.899 260.445 254.973 260.387 255.023 260.288C255.064 260.205 255.122 260.164 255.18 260.089C255.304 259.957 255.279 259.807 255.362 259.658C255.437 259.518 255.437 259.385 255.487 259.228C255.544 259.062 255.528 258.913 255.611 258.739C255.694 258.565 255.809 258.4 255.901 258.234C256 258.043 255.992 257.845 256.066 257.654C256.124 257.505 256.166 257.348 256.19 257.19C256.199 257.132 256.19 257.058 256.215 257C256.248 256.917 256.348 256.876 256.397 256.793C256.472 256.677 256.497 256.544 256.58 256.429C256.671 256.304 256.671 256.13 256.696 255.99C256.72 255.849 256.696 255.708 256.754 255.567C256.812 255.427 256.861 255.335 256.878 255.186C256.894 255.062 256.919 254.971 256.919 254.839C256.919 254.557 256.961 254.292 256.961 254.01V253.207C256.961 252.95 256.919 252.66 256.961 252.412C256.994 252.255 257.068 252.106 257.093 251.957C257.118 251.832 257.077 251.7 257.093 251.576C257.101 251.501 257.135 251.435 257.143 251.36C257.143 251.302 257.135 251.244 257.143 251.186C257.151 251.104 257.193 251.037 257.193 250.954C257.193 250.872 257.193 250.789 257.193 250.706C257.193 250.54 257.193 250.383 257.193 250.217C257.193 250.151 257.209 250.077 257.193 250.01C257.176 249.87 257.027 249.762 256.952 249.646C256.878 249.53 256.853 249.447 256.754 249.348C256.679 249.273 256.629 249.174 256.555 249.099C256.414 248.95 256.248 248.818 256.066 248.718C255.934 248.652 255.818 248.586 255.677 248.528C255.594 248.495 255.503 248.495 255.429 248.47C255.329 248.429 255.238 248.379 255.13 248.337C254.948 248.271 254.774 248.255 254.576 248.263C254.36 248.263 254.17 248.172 253.954 248.18C253.607 248.18 253.201 248.122 252.861 248.197C252.671 248.238 252.538 248.313 252.364 248.412C252.248 248.478 252.132 248.487 252.008 248.536C251.901 248.578 251.826 248.685 251.718 248.743C251.66 248.768 251.602 248.785 251.544 248.818C251.486 248.843 251.387 248.934 251.304 248.925" fill="#EDC298"/>
<path d="M269.979 189.77C268.323 188.942 257.557 188.114 246.791 193.083C237.06 197.571 240.861 207.476 241.681 209.34C241.797 209.605 241.905 209.861 241.996 210.135L251.362 235.899C251.619 236.611 251.959 237.298 252.348 237.952C261.946 254.168 255.793 261.588 249.242 264.942C245.085 267.07 240.157 267.087 235.859 265.265C229.805 262.698 225.913 264.304 224.779 264.925C224.472 265.091 224.166 265.257 223.851 265.389C221.077 266.565 218.625 266.971 216.571 266.979C212.282 266.996 208.389 264.553 206.294 260.801C199.851 249.298 210.344 239.46 210.344 239.46" stroke="black" stroke-miterlimit="10"/>
<path d="M210.352 239.46C210.352 239.46 209.706 240.064 208.836 241.141" stroke="black" stroke-miterlimit="10"/>
<path d="M241.143 266.54C243.917 266.747 246.725 266.234 249.25 264.942C255.801 261.596 261.954 254.176 252.356 237.961C251.967 237.298 251.627 236.619 251.371 235.899L241.996 210.135C241.905 209.861 241.797 209.605 241.681 209.34C240.861 207.476 237.06 197.571 246.791 193.083C257.557 188.114 268.323 188.942 269.979 189.77" stroke="black" stroke-miterlimit="10"/>
<path d="M224.431 265.132C224.431 265.132 240.986 269.108 237.184 265.87C234.369 263.476 225.259 263.476 224.431 265.132Z" fill="black"/>
<path d="M204.555 191.426C202.302 184.669 171.843 195.153 171.843 195.153C171.843 195.153 191.718 211.716 199.172 203.435C199.172 203.435 201.656 200.95 204.969 202.607C204.969 202.607 206.211 196.395 204.555 191.426Z" fill="#DBDBDD" stroke="black" stroke-miterlimit="10"/>
<path d="M240.994 203.849C240.994 203.849 241.756 191.625 255.031 193.596C256.133 193.762 257.043 194.549 257.375 195.609C258.186 198.193 259.039 203.161 255.072 206.333C251.106 209.505 240.994 203.849 240.994 203.849Z" fill="#DBDBDD" stroke="black" stroke-miterlimit="10"/>
<path d="M198.344 203.021C200.859 203.021 202.899 200.054 202.899 196.395C202.899 192.736 200.859 189.77 198.344 189.77C195.828 189.77 193.789 192.736 193.789 196.395C193.789 200.054 195.828 203.021 198.344 203.021Z" fill="#472914" stroke="black" stroke-miterlimit="10"/>
<path d="M201.035 199.708C202.293 199.708 203.313 198.225 203.313 196.395C203.313 194.566 202.293 193.083 201.035 193.083C199.777 193.083 198.758 194.566 198.758 196.395C198.758 198.225 199.777 199.708 201.035 199.708Z" fill="black"/>
<path d="M254.244 205.505C256.074 205.505 257.557 202.91 257.557 199.708C257.557 196.506 256.074 193.911 254.244 193.911C252.415 193.911 250.932 196.506 250.932 199.708C250.932 202.91 252.415 205.505 254.244 205.505Z" fill="#4C2D14" stroke="black" stroke-miterlimit="10"/>
<path d="M256.315 202.607C257.229 202.607 257.971 201.309 257.971 199.708C257.971 198.107 257.229 196.81 256.315 196.81C255.4 196.81 254.658 198.107 254.658 199.708C254.658 201.309 255.4 202.607 256.315 202.607Z" fill="black"/>
<path d="M160.662 199.708C164.447 197.795 168.348 196.139 172.315 194.631C176.282 193.124 180.331 191.841 184.439 190.772C186.501 190.267 188.588 189.82 190.691 189.505C192.795 189.19 194.915 188.909 197.052 188.925C199.18 188.925 201.342 189.091 203.404 189.679C205.441 190.284 207.437 191.36 208.696 193.091C207.288 191.484 205.325 190.532 203.304 190.068C201.275 189.58 199.164 189.48 197.068 189.563C192.878 189.754 188.72 190.532 184.638 191.584C180.538 192.569 176.522 193.861 172.522 195.236C170.526 195.915 168.538 196.644 166.567 197.397C164.58 198.135 162.625 198.921 160.662 199.716V199.708Z" fill="black"/>
<path d="M243.528 195.195C245.085 194.217 246.816 193.547 248.596 193.05C250.377 192.553 252.24 192.321 254.095 192.346C255.959 192.362 257.822 192.743 259.544 193.431C261.308 194.06 262.824 195.186 264.182 196.395C263.785 196.164 263.395 195.932 263.006 195.691L262.426 195.335C262.228 195.228 262.012 195.145 261.814 195.046L260.596 194.458L259.321 194.027C257.615 193.513 255.851 193.166 254.062 193.174C252.282 193.132 250.493 193.331 248.72 193.663C247.834 193.836 246.956 194.052 246.095 194.317C245.217 194.549 244.364 194.863 243.511 195.195H243.528Z" fill="black"/>
<path d="M81.3002 194.135C79.4038 198.333 78.0704 203.667 79.8427 208.114C80.6791 210.217 82.3106 212.859 80.7951 215.037C80.116 216.023 78.9731 216.594 77.7806 216.528C76.4058 216.453 75.5197 215.6 74.6833 214.598C73.1429 212.743 71.1387 211.89 69.0932 210.706C67.0476 209.522 64.704 208.106 62.9731 206.333C58.7909 202.035 63.0062 196.279 65.2837 192.155C66.5922 189.787 69.2837 187.99 71.8592 187.236C74.1035 186.582 76.5218 186.168 77.8799 184.048C78.3106 183.369 77.234 182.747 76.8033 183.418C75.3458 185.704 72.1325 185.605 69.8882 186.64C67.6439 187.675 65.4824 189.257 64.2982 191.369C61.9793 195.501 57.8385 201.273 61.0766 205.994C62.4762 208.039 64.7702 209.489 66.824 210.797C69.1346 212.263 71.9006 213.224 73.6895 215.36C75.0973 217.041 76.8696 218.242 79.1636 217.629C81.2174 217.083 82.6004 215.161 82.6418 213.066C82.6998 210.043 80.3975 207.559 80.265 204.528C80.116 201.207 80.9938 197.77 82.3603 194.764C82.6915 194.043 81.6149 193.406 81.2837 194.135H81.3002Z" fill="black"/>
<path d="M75.2878 176.52C74.8406 174.118 73.3333 172.164 71.5362 170.573C69.5487 168.818 67.2381 167.244 64.8364 166.11C62.4348 164.975 59.8592 164.354 57.2422 164.851C54.9317 165.282 52.8282 166.615 51.2381 168.321C47.354 172.487 46.294 178.673 46.294 184.172C46.294 187.17 46.5259 190.242 47.205 193.174C47.8841 196.106 49.176 198.573 50.5176 201.149C51.9834 203.965 53.5238 206.764 55.5942 209.19C56.6294 210.408 57.8302 211.46 58.8572 212.677C60.0331 214.068 60.8944 215.683 61.7557 217.282C62.1367 217.985 63.205 217.356 62.8323 216.652C61.5735 214.308 60.2236 212.213 58.3603 210.308C56.4969 208.404 54.8654 206.333 53.499 204.006C52.1325 201.679 50.9565 199.451 49.8716 197.099C48.6543 194.466 48.0497 191.658 47.7681 188.776C47.2381 183.369 47.3955 177.472 49.8716 172.511C52.1905 167.857 56.7868 164.834 62.0456 166.358C64.8364 167.17 67.412 168.851 69.6729 170.631C71.7267 172.238 73.5984 174.193 74.087 176.843C74.236 177.629 75.4286 177.298 75.2878 176.511V176.52Z" fill="black"/>
<path d="M176.961 194.963C176.853 194.665 176.936 194.308 177.168 194.085C177.458 193.803 177.93 193.77 178.319 193.903C178.708 194.035 179.031 194.3 179.337 194.565C178.948 194.159 178.542 193.53 178.89 193.091C179.619 193.298 180.306 193.663 180.894 194.151C180.613 193.836 180.737 193.282 181.085 193.05C181.433 192.818 181.93 192.867 182.286 193.108C182.683 193.373 182.94 193.845 183.387 194.002C183.379 193.447 183.362 192.901 183.354 192.346C184.605 192.71 185.764 193.373 186.708 194.259C186.236 193.398 185.772 192.536 185.3 191.683C186.634 191.6 187.992 191.998 189.077 192.785C188.646 192.172 188.224 191.567 187.793 190.954C188.919 191.137 189.971 191.7 190.758 192.52C190.625 191.758 190.153 191.07 189.499 190.665C190.518 190.3 191.354 192.006 192.414 191.766C192.025 191.344 191.743 190.822 191.602 190.267C192.82 190.565 193.979 191.12 194.973 191.89L194.046 190.259L196.994 192.304C196.903 191.277 196.654 190.259 196.265 189.306C196.961 189.77 197.665 190.234 198.36 190.698C198.12 190.143 197.954 189.555 197.863 188.95C198.716 189.53 199.569 190.101 200.414 190.681C200.29 190.35 200.248 189.986 200.298 189.638C200.886 189.795 201.408 190.193 201.723 190.714C201.723 190.549 201.739 190.391 201.747 190.226C202.195 190.557 202.65 190.888 203.097 191.219C203.213 191.012 203.329 190.805 203.445 190.598C203.776 190.764 204.058 191.037 204.232 191.36C204.414 191.112 204.903 191.294 204.878 191.6C204.994 191.186 204.745 190.739 204.398 190.482C204.05 190.226 203.619 190.126 203.197 190.035C202.352 189.845 201.507 189.654 200.654 189.464C199.114 189.116 197.565 188.768 195.992 188.752C195.511 188.752 195.031 188.776 194.567 188.909C194.228 189.008 193.905 189.174 193.565 189.298C192.646 189.654 191.66 189.754 190.683 189.87C187.586 190.251 184.513 190.872 181.507 191.725C181.01 191.865 180.505 192.014 180.008 192.164C178.161 192.71 175.048 192.843 175.561 195.484C175.685 195.012 175.561 194.499 175.42 194.052C176.025 194.027 176.646 194.466 176.936 194.988L176.961 194.963Z" fill="#0C0602"/>
<path d="M243.901 197.083C244.339 197.05 244.778 197.008 245.217 196.975C245.151 196.776 244.977 196.611 244.778 196.561C245.11 196.155 245.706 195.998 246.195 196.18C246.021 196.023 245.838 195.857 245.665 195.7C246.095 195.327 246.725 195.203 247.271 195.385C247.337 195.186 247.296 194.954 247.155 194.797C247.569 194.714 248.008 194.822 248.348 195.079C248.281 194.872 248.265 194.648 248.306 194.433C248.961 194.317 249.656 194.474 250.195 194.863C249.847 194.756 249.549 194.499 249.383 194.168C250.228 193.969 251.172 194.217 251.801 194.805C251.867 194.424 251.644 194.019 251.288 193.87C252.074 193.82 252.869 194.06 253.499 194.524C253.457 194.168 253.325 193.812 253.126 193.513C254.045 193.671 254.923 194.052 255.669 194.607C255.735 194.151 255.412 193.704 255.006 193.497C254.6 193.29 254.12 193.248 253.665 193.215C252.05 193.099 250.393 192.992 248.845 193.439C247.561 193.812 246.426 194.549 245.433 195.418C244.936 195.857 242.932 197.497 244.389 197.985C244.356 197.928 243.975 197.083 243.925 197.083H243.901Z" fill="#0C0602"/>
<path d="M359.42 152.503C358.592 169.066 361.077 179.832 279.917 160.785C279.917 160.785 277.11 161.778 272.124 163.203C251.487 169.141 193.458 182.656 142.087 165.025C137.764 163.542 133.491 161.836 129.292 159.89C128.389 159.468 127.495 159.037 126.6 158.59C124.513 157.563 122.443 156.47 120.398 155.319C113.35 151.327 106.576 146.574 100.207 140.909C100.207 140.909 81.1843 140.909 55.5114 149.166C53.8716 149.687 52.207 150.251 50.5176 150.847C50.5176 150.847 38.0952 100.329 65.4244 48.9834C65.4244 48.9834 82.8157 24.1387 129.193 8.40373C175.569 -7.33126 222.774 8.40373 222.774 8.40373C222.774 8.40373 269.979 37.3892 274.12 126.002C274.12 126.002 360.248 135.94 359.42 152.503Z" fill="#2C2B27" stroke="black" stroke-miterlimit="10"/>
<path d="M102.692 139.253C102.692 139.253 115.942 145.878 185.507 130.143C185.507 130.143 237.681 121.033 285.714 127.658C333.747 134.284 347.826 142.565 355.28 146.706C362.733 150.847 344.315 135.617 324.638 138.424C307.246 140.909 303.934 142.565 284.886 150.847C269.963 157.331 182.195 193.911 102.692 139.253Z" stroke="black" stroke-miterlimit="10"/>
<path d="M357.764 161.613C357.764 161.613 360.248 156.644 359.42 150.847C358.592 145.05 335.404 136.768 332.919 138.424C332.919 138.424 322.981 136.768 298.965 145.05C274.948 153.331 288.199 152.503 250.104 162.441C212.008 172.379 183.023 168.238 183.023 168.238C183.023 168.238 140.787 166.582 102.692 139.253L101.035 140.909C101.035 140.909 113.458 155.816 150.725 167.41C187.992 179.004 237.681 171.551 252.588 168.238C267.495 164.925 304.762 151.675 304.762 151.675C304.762 151.675 346.998 130.143 357.764 161.613Z" stroke="black" stroke-miterlimit="10"/>
<path d="M279.917 160.785C279.917 160.785 322.981 143.393 328.779 145.05C328.779 145.05 351.139 140.081 357.764 162.441C357.764 162.441 359.42 169.066 345.342 170.723C331.263 172.379 279.917 160.785 279.917 160.785Z" fill="black" stroke="black" stroke-miterlimit="10"/>
<path d="M133.333 7.57556C133.333 7.57556 115.114 9.23188 117.598 38.2174C120.083 67.2029 126.708 113.58 127.536 125.174C128.364 136.768 127.536 140.081 127.536 140.081" stroke="black" stroke-miterlimit="10"/>
<path d="M197.101 196.81C197.788 196.81 198.344 196.068 198.344 195.153C198.344 194.238 197.788 193.497 197.101 193.497C196.415 193.497 195.859 194.238 195.859 195.153C195.859 196.068 196.415 196.81 197.101 196.81Z" fill="#A58B76"/>
<path d="M253.83 198.466C254.288 198.466 254.658 197.973 254.658 197.364C254.658 196.756 254.288 196.263 253.83 196.263C253.373 196.263 253.002 196.756 253.002 197.364C253.002 197.973 253.373 198.466 253.83 198.466Z" fill="#A58B76"/>
</svg>
