<svg width="150" height="92" viewBox="0 0 150 92" fill="none" xmlns="http://www.w3.org/2000/svg">
<g clip-path="url(#clip0_1_81)">
<path d="M127.25 92.01L77.93 6.58C76.42 3.96 72.63 3.96 71.12 6.58L21.79 92.01H0L39.47 23.64C40.17 22.42 41.47 21.67 42.87 21.67H49.19C51.36 21.67 53.12 19.91 53.12 17.74V3.93C53.12 1.76 54.88 0 57.05 0H95.92L149.04 92.01H127.25Z" fill="black" style="fill:black;fill-opacity:1;"/>
<path d="M74.52 73.1C79.7446 73.1 83.98 68.8646 83.98 63.64C83.98 58.4154 79.7446 54.18 74.52 54.18C69.2954 54.18 65.06 58.4154 65.06 63.64C65.06 68.8646 69.2954 73.1 74.52 73.1Z" fill="black" style="fill:black;fill-opacity:1;"/>
</g>
<defs>
<clipPath id="clip0_1_81">
<rect width="149.04" height="92.01" fill="white" style="fill:white;fill-opacity:1;"/>
</clipPath>
</defs>
</svg>
